<svg width="351" height="241" viewBox="0 0 351 241" fill="none" xmlns="http://www.w3.org/2000/svg">
<path d="M315.363 44.6931C315.69 46.1381 317.997 48.1443 319.37 48.1443C321.353 48.1443 325.803 54.5622 326.607 58.5992C327.036 60.8248 325.642 64.189 324.248 64.189C323.176 64.1372 319.37 60.773 319.37 59.7896C319.37 58.8063 318.297 58.2887 317.6 58.9615C316.635 59.8932 318.136 63.4644 320.442 65.8452C321.621 67.0356 322.586 68.226 322.586 68.5365C322.586 68.7953 321.943 69.6752 321.192 70.5033L319.745 71.9007L318.19 70.8656C317.386 70.2963 315.724 68.433 314.544 66.7251C312.882 64.396 312.453 63.3609 312.722 62.3775C312.882 61.6529 313.258 61.0836 313.472 61.0836C314.062 61.0836 316.314 57.5123 316.314 56.6325C316.314 56.2184 316.474 55.9079 316.635 55.9079C316.796 55.9079 316.957 55.3385 316.957 54.614C316.957 51.8708 315.188 53.5788 309.398 61.8599C308.593 62.9986 306.717 65.3794 305.269 67.1391C302.642 70.2963 302.482 70.3998 300.123 70.3481C298.782 70.3481 296.584 70.0375 295.297 69.727C293.207 69.1577 292.778 68.7953 291.437 66.2593C290.58 64.7066 289.883 62.7915 289.883 62.0152C289.883 60.773 292.885 56.2184 294.332 55.3385C294.6 55.1315 294.869 53.8894 294.976 52.5437C295.137 49.3865 296.155 48.5066 300.712 47.6268C302.589 47.3162 304.358 46.8504 304.626 46.5916C305.484 45.9706 308.272 45.4012 309.826 45.5047C311.719 45.657 315.518 45.8092 315.363 44.6931Z" fill="#F9AD26"/>
<path d="M137.086 146.431C137.086 146.689 135.585 149.226 133.226 152.952C132.851 153.521 131.672 155.385 130.653 157.093C129.634 158.852 128.508 160.716 128.133 161.233C127.758 161.802 126.578 163.769 125.506 165.633C124.434 167.496 122.986 169.67 122.343 170.549C121.7 171.378 119.555 174.793 117.518 178.054C115.534 181.315 113.014 185.197 111.996 186.698C109.101 190.993 103.525 195.186 97.413 197.618C96.6625 197.929 94.7324 198.757 93.124 199.43C90.1753 200.724 88.6206 201.034 81.5973 201.604C79.56 201.811 77.2547 202.069 76.5041 202.225C74.0915 202.742 44.6582 202.949 42.9962 202.432C42.1384 202.173 41.0125 201.914 40.5836 201.811C39.6722 201.552 36.8307 198.964 36.8307 198.343C36.8307 198.084 36.3482 197.463 35.8121 196.842C35.2223 196.273 34.0965 194.513 33.3459 193.012C32.5417 191.459 30.7189 188.561 29.3249 186.594C27.8774 184.576 24.6606 179.607 22.0872 175.518C19.5138 171.429 16.0826 166.098 14.4206 163.614C12.7586 161.181 10.8286 158.128 10.1316 156.937L8.89852 154.66L14.6887 154.971C17.8518 155.126 22.677 155.436 25.304 155.643C27.9846 155.902 37.4205 156.006 46.2666 155.954C59.5089 155.902 62.7793 155.747 64.4413 155.074C65.9424 154.453 66.693 154.401 67.4972 154.815C68.3014 155.229 68.9447 155.229 70.017 154.764C70.7675 154.401 72.644 154.194 74.0915 154.246C84.8677 154.764 92.3735 154.66 95.9119 154.039C101.22 153.056 102.882 152.693 103.847 152.383C104.275 152.227 105.24 151.969 105.991 151.865C106.742 151.71 107.707 151.503 108.136 151.296C108.564 151.141 109.208 150.934 109.476 150.882C109.798 150.778 111.46 150.364 113.229 149.898C117.25 148.812 118.751 148.553 124.487 147.828C125.989 147.621 127.651 147.311 128.24 147.155C129.581 146.741 130.385 146.534 132.744 146.224C133.762 146.12 134.674 145.913 134.781 145.758C135.103 145.447 137.086 146.017 137.086 146.431Z" fill="#F9AD26"/>
<path fill-rule="evenodd" clip-rule="evenodd" d="M315.349 44.6249C315.353 44.6475 315.357 44.6702 315.363 44.6931C315.359 44.6708 315.355 44.6481 315.349 44.6249Z" fill="#2B7C3D"/>
<path fill-rule="evenodd" clip-rule="evenodd" d="M90.8187 4.56505C91.3548 3.68518 92.856 2.39125 94.1963 1.7184C96.0727 0.735031 97.0914 0.527985 98.6998 0.786774C99.8792 0.942047 101.005 1.20084 101.327 1.40787C101.809 1.66664 107.063 12.0698 107.278 13.2084C107.331 13.4672 107.975 14.7611 108.672 16.0551C109.315 17.349 109.905 18.4876 109.851 18.6429C109.798 19.2122 111.299 22.1624 112.639 24.2327C113.39 25.4231 113.926 26.4064 113.765 26.4064C113.658 26.4064 114.301 27.7521 115.212 29.3566C117.893 34.17 119.877 38 119.77 38.3105C119.716 38.4658 120.038 39.1386 120.466 39.8632C120.842 40.5878 121.163 41.2089 121.11 41.3124C121.056 41.3642 122.075 43.538 123.415 46.0741C124.756 48.6102 125.881 50.8875 125.881 51.0945C126.149 52.5437 132.583 64.2925 133.334 64.7065C135.21 65.6899 135.424 63.6714 134.084 58.1334C133.602 56.2184 133.119 53.9929 133.065 53.2165C133.065 52.4402 132.851 51.612 132.637 51.4568C132.422 51.2497 132.261 50.4734 132.261 49.7488C132.261 47.9891 130.492 41.4677 129.581 39.8632C129.152 39.1386 128.83 38.1553 128.776 37.6377C128.669 36.3955 130.653 33.5489 131.725 33.3419C132.154 33.2383 133.012 33.0831 133.602 32.9796C136.872 32.3585 139.392 35.5157 139.928 40.8984C140.089 42.4511 140.464 44.8837 140.786 46.3328C141.107 47.7303 141.483 49.49 141.59 50.2146C141.697 50.9392 142.072 52.1296 142.394 52.906C142.716 53.7341 142.877 54.3552 142.716 54.3552C142.609 54.3552 142.823 55.3386 143.306 56.4772C143.734 57.6676 144.163 59.5826 144.324 60.773C144.431 61.9634 144.807 63.6197 145.075 64.5513C145.343 65.4312 145.45 66.311 145.343 66.4145C144.914 66.7768 148.667 70.2445 149.9 70.6586C150.49 70.8139 151.026 71.1762 151.026 71.435C151.026 71.642 151.508 71.9525 152.044 72.1078C153.17 72.3666 153.17 72.5219 152.366 77.7493C152.152 78.8879 151.669 80.1819 151.24 80.5959C149.632 82.1486 149.578 86.3409 151.187 88.5665C152.044 89.6534 152.527 89.8086 156.012 89.8604C160.837 89.9639 167.002 89.2393 168.557 88.463C169.2 88.1524 169.844 87.3243 170.005 86.7032C170.648 84.3224 182.443 74.5404 184.694 74.5404C185.123 74.5404 186.035 73.971 186.678 73.2464C187.804 72.1595 188.126 72.056 189.734 72.5218C190.699 72.8324 191.771 73.1429 192.039 73.1947C192.361 73.2464 193.326 73.6087 194.184 74.0228C195.095 74.3851 196.275 74.8509 196.865 75.0579C197.454 75.265 198.634 75.7308 199.545 76.0931C200.939 76.6106 201.207 76.5589 202.065 75.5755C202.601 74.9544 203.03 74.0228 203.03 73.557C203.03 72.2113 205.925 68.1225 207.802 66.8286C208.713 66.2075 209.464 65.4829 209.464 65.2241C209.464 64.9653 210.053 63.5161 210.804 62.0152C214.45 54.6657 218.953 49.697 221.955 49.697C222.974 49.697 223.242 49.9558 223.135 50.8357C222.759 53.7859 221.366 58.9615 220.776 59.7896C220.561 60.0484 220.347 61.1353 220.24 62.1705C220.132 64.0855 221.312 65.4312 224.475 66.9321C226.298 67.812 229.139 71.5902 229.89 74.1781C230.265 75.3685 230.641 77.594 230.748 79.1467C231.123 84.7882 235.358 88.4112 241.47 88.5147C243.4 88.5147 243.883 88.256 245.009 86.8067C245.706 85.9269 246.51 84.4259 246.724 83.5978C246.992 82.7185 247.26 81.6841 247.368 81.2695L247.368 81.2688C247.475 80.8547 247.582 77.6458 247.582 74.1781C247.636 67.7085 246.939 62.9468 245.545 60.4107C244.794 58.9615 244.258 57.3053 244.205 56.0114C244.151 55.7009 243.99 55.3903 243.776 55.3903C243.347 55.3903 241.095 49.9558 241.095 48.8689C241.095 48.0408 244.044 47.8338 244.58 48.6619C244.741 48.9207 245.33 49.1795 245.813 49.1795C246.832 49.1795 249.566 51.198 251.871 53.4753C253.158 54.8728 257.286 62.067 257.072 62.6363C257.018 62.7915 257.286 63.4644 257.661 64.1372C258.037 64.8101 258.466 66.104 258.626 66.9839C258.787 67.8637 259.109 68.9506 259.323 69.4164C259.913 70.4516 260.503 75.7825 260.664 81.7863C260.771 84.4777 260.824 86.962 260.878 87.3243C260.985 88.3595 265.006 89.084 268.437 88.7218C273.638 88.1524 274.71 88.7218 275.193 92.3965C275.407 93.8457 274.657 96.3818 273.691 97.5722C273.477 97.831 272.834 98.6073 272.298 99.2802C271.708 100.108 270.582 100.574 269.081 100.781C266.775 101.092 265.703 102.127 266.615 103.007C266.883 103.265 268.384 103.628 269.939 103.835C272.351 104.094 273.048 103.938 275.139 102.8C276.479 102.023 277.605 101.247 277.605 101.04C277.82 99.9012 277.981 97.5204 278.088 92.5C278.195 87.0138 278.249 86.9103 280.286 83.8566C282.913 79.9231 286.451 78.0081 291.223 77.9563C294.654 77.9046 295.405 77.4905 294.922 75.8343C294.172 73.0912 293.367 71.9008 291.759 70.9691C290.579 70.2963 289.454 68.8989 288.274 66.5698C286.773 63.6197 286.559 62.7915 286.88 60.7213C287.041 59.3238 287.952 57.0983 288.918 55.6491C289.829 54.1999 290.848 52.5437 291.169 51.9226C291.491 51.2498 291.973 50.7322 292.188 50.7322C292.456 50.7322 292.51 50.5252 292.349 50.2664C291.813 49.4383 292.992 47.2127 294.386 46.3328C295.78 45.453 305.109 43.4862 309.29 43.2274C311.328 43.0722 315.134 43.7968 315.349 44.6249C315.353 44.6475 315.357 44.6702 315.363 44.6931C315.518 45.8092 311.719 45.657 309.826 45.5047C308.272 45.4012 305.484 45.9706 304.626 46.5916C304.358 46.8504 302.589 47.3162 300.712 47.6268C296.155 48.5066 295.137 49.3865 294.976 52.5437C294.869 53.8894 294.6 55.1315 294.332 55.3385C292.885 56.2184 289.883 60.773 289.883 62.0152C289.883 62.7915 290.58 64.7066 291.437 66.2593C292.778 68.7953 293.207 69.1577 295.297 69.727C296.584 70.0375 298.782 70.3481 300.123 70.3481C302.482 70.3998 302.642 70.2963 305.269 67.1391C306.717 65.3794 308.593 62.9986 309.398 61.8599C315.188 53.5788 316.957 51.8708 316.957 54.614C316.957 55.3385 316.796 55.9079 316.635 55.9079C316.474 55.9079 316.314 56.2184 316.314 56.6325C316.314 57.5123 314.062 61.0836 313.472 61.0836C313.258 61.0836 312.882 61.6529 312.722 62.3775C312.453 63.3609 312.882 64.396 314.544 66.7251C315.724 68.433 317.386 70.2963 318.19 70.8656L319.745 71.9007L321.192 70.5033C321.943 69.6752 322.586 68.7953 322.586 68.5365C322.586 68.226 321.621 67.0356 320.442 65.8452C318.136 63.4644 316.635 59.8932 317.6 58.9615C318.297 58.2887 319.37 58.8063 319.37 59.7896C319.37 60.773 323.176 64.1372 324.248 64.189C325.642 64.189 327.036 60.8248 326.607 58.5992C325.803 54.5622 321.353 48.1443 319.37 48.1443C317.997 48.1443 315.69 46.1381 315.363 44.6931C315.359 44.6708 315.355 44.6481 315.349 44.6249C315.188 43.6415 315.295 43.4862 316.046 43.745C316.528 43.952 317.708 44.4178 318.565 44.7284C319.477 45.0389 320.549 45.66 320.978 46.0741C321.407 46.5399 322.533 47.4198 323.498 48.0408C324.409 48.6619 325.964 50.3699 326.875 51.8708C327.84 53.32 328.913 54.821 329.288 55.235C331.432 57.2536 331.54 61.9634 329.502 64.2407C328.913 64.9136 328.001 66.104 327.519 66.8804C327.036 67.7085 326.446 68.3295 326.178 68.3295C325.91 68.3295 325.803 68.6918 325.964 69.1059C326.178 69.5199 326.071 69.9857 325.749 70.141C325.481 70.3481 325.374 70.7104 325.535 70.9691C325.749 71.2279 325.589 71.435 325.267 71.435C324.945 71.435 324.784 71.642 324.999 71.9007C325.481 72.6771 321.675 76.0413 319.798 76.5071C316.474 77.3352 316.582 79.7678 319.906 80.4406C320.656 80.5959 322.318 80.9582 323.659 81.3205C324.999 81.6311 326.339 81.9416 326.607 81.9934C326.929 82.0451 327.894 82.5109 328.859 82.9767C330.199 83.6496 330.682 84.3224 331.003 86.0304C331.432 87.9454 331.325 88.256 330.521 88.4112C330.038 88.5147 328.323 87.7384 326.768 86.755C325.213 85.7198 323.498 84.8917 322.908 84.8917C320.388 84.8917 314.008 91.3096 313.687 94.1562C313.419 97.0546 311.596 100.678 310.523 100.678C309.88 100.678 307.843 98.1933 306.502 95.916C305.537 94.3115 304.304 92.914 303.554 92.6553C302.803 92.3965 301.463 90.9991 300.551 89.5499C299.64 88.1524 298.729 86.962 298.568 86.9102C298.353 86.9102 297.388 86.8067 296.423 86.7032C294.064 86.4962 293.582 85.9269 293.26 83.2355C292.938 80.3889 292.51 79.9748 290.633 80.9065C289.775 81.3205 288.435 81.7863 287.684 81.9416C285.647 82.4592 283.556 84.2189 282.27 86.5997C280.768 89.3428 280.715 89.6016 280.822 93.9492C280.929 98.5556 280.876 104.973 280.715 106.63C280.554 108.441 281.251 109.735 282.377 109.735C283.556 109.735 283.932 108.752 283.932 105.802C283.932 103.421 284.736 97.5722 285.057 97.5722C285.111 97.5722 285.218 96.7958 285.325 95.8125C285.433 94.8291 285.915 93.6904 286.398 93.2246C287.684 91.9824 288.221 93.2246 288.328 97.5722C288.328 99.5389 288.489 102.23 288.596 103.524C289.132 110.356 289.078 111.391 288.06 111.909C287.148 112.375 287.202 112.478 288.274 113.617L289.454 114.859L288.167 116.567C286.183 119.103 285.594 121.018 285.325 125.314C285.057 130.386 284.682 132.612 283.074 138.615C282.216 141.876 282.377 143.067 283.556 141.928C284.629 140.893 286.934 141.203 290.579 142.859C292.51 143.688 294.547 144.412 295.137 144.412C295.726 144.412 297.388 145.344 298.782 146.482C301.195 148.397 302.696 148.863 305.966 148.656C315.241 148.087 315.831 148.139 317.922 149.381C319.101 150.157 319.906 151.037 319.906 151.658C319.906 152.952 319.316 152.952 316.635 151.658C314.33 150.52 312.561 150.52 310.095 151.658L308.593 152.383L308.861 157.041C309.237 162.734 309.29 163.252 310.202 164.287C310.952 165.115 310.684 166.668 309.773 166.668C308.379 166.668 305.645 161.181 305.055 157.093C304.68 154.453 303.983 152.693 303.339 152.693C302.482 152.693 302.374 153.832 302.482 160.043C302.589 164.494 302.428 166.357 301.892 167.03C300.766 168.479 301.034 169.359 303.018 171.533C305.43 174.121 306.02 176.398 304.733 178.365C304.519 178.727 304.733 179.245 305.162 179.607C305.591 179.969 306.074 181.004 306.288 181.988C306.663 184.006 308.004 184.938 309.826 184.524C311.542 184.161 312.4 184.834 312.99 187.163C313.472 189.13 313.258 200.051 312.561 206.262C312.4 207.97 312.239 209.833 312.185 210.402C312.078 210.972 311.864 212.11 311.649 212.887C311.381 213.766 311.488 215.267 311.917 216.768C312.829 219.822 312.829 220.029 312.293 221.116C311.703 222.306 309.237 221.841 307.95 220.34C307.039 219.201 307.039 219.201 306.395 220.236C306.02 220.805 305.645 222.41 305.591 223.859C305.323 228.776 305.216 229.035 303.875 229.19C302.696 229.397 302.642 229.293 303.018 227.12C303.768 223.031 303.768 222.358 302.91 220.961C302.106 219.667 302.106 219.356 303.178 216.768C303.822 215.267 304.465 213.456 304.572 212.731C304.733 212.007 304.84 211.437 304.894 211.437C305.162 211.437 305.484 206.831 305.698 200.31C305.806 195.186 305.645 191.563 305.162 189.027C304.733 186.905 304.412 185.041 304.465 184.886C304.465 184.679 304.197 183.799 303.875 182.868C303.286 181.418 303.071 181.263 302.213 181.781C301.677 182.143 301.088 182.764 300.98 183.23C300.873 183.644 300.712 184.161 300.659 184.369C300.605 184.576 300.23 185.559 299.801 186.491C298.514 189.441 298.3 193.219 299.265 195.703C299.747 196.945 300.283 200.051 300.391 202.587C300.551 205.123 300.82 207.556 301.088 208.021C302.589 211.023 300.98 214.957 297.924 215.578C296.316 215.94 294.547 217.7 295.029 218.476C295.19 218.735 295.029 219.356 294.761 219.874C293.903 221.375 294.654 223.083 296.102 223.083C297.656 223.083 297.764 223.756 296.316 225.153C295.458 225.981 294.976 226.085 294.225 225.722C293.689 225.412 292.563 225.256 291.705 225.308C290.419 225.412 290.151 225.205 290.258 224.377C290.419 222.617 293.528 214.336 294.868 212.007L296.155 209.781L295.137 207.814C294.547 206.779 294.011 204.916 293.903 203.777C293.743 201.448 293.582 200.931 291.92 197.049C291.384 195.652 291.008 194.254 291.116 193.944C291.384 193.115 290.258 190.579 288.274 187.526C285.969 184.006 284.521 179.917 284.2 176.036C283.717 169.359 283.449 168.272 281.573 164.804C279.267 160.457 278.999 158.852 278.999 150.623C278.999 142.601 279.482 138.564 280.715 135.872C281.733 133.647 282.216 127.125 281.412 126.608C281.144 126.453 279.321 127.591 277.337 129.196C275.407 130.748 271.815 133.284 269.349 134.785C266.936 136.338 264.148 138.201 263.13 138.926C260.985 140.479 259.323 140.634 257.447 139.444C256.696 138.978 256.053 138.822 256.053 139.029C254.981 146.017 255.41 149.433 257.876 152.383C261.146 156.368 261.468 160.198 258.894 163.821C258.09 164.96 256.482 166.357 255.41 166.926C253.694 167.806 251.228 170.653 251.335 171.585C251.335 171.74 251.121 173.086 250.799 174.586C250.209 177.33 250.263 178.779 251.335 184.99C251.925 188.509 251.764 190.838 250.799 193.944C250.745 194.047 250.745 194.202 250.745 194.358C250.692 194.461 250.37 195.341 249.941 196.324C249.191 198.136 249.137 212.265 249.941 216.872C250.853 222.151 250.638 223.548 248.708 225.205C247.475 226.24 246.563 226.654 245.867 226.447C245.33 226.24 244.205 226.033 243.4 225.878C242.543 225.722 241.524 225.256 241.095 224.739C240.612 224.273 239.969 223.807 239.54 223.704C238.414 223.497 236.27 221.944 236.216 221.323C236.055 219.511 236.431 216.924 237.074 215.578C239.272 210.92 239.219 211.23 239.755 202.38C239.969 198.446 239.862 195.962 239.272 193.322C238.736 191.045 238.522 188.147 238.682 185.559C238.843 183.282 239.004 180.021 239.111 178.313C239.272 175.984 239.004 174.483 238.093 172.361C237.449 170.808 236.752 169.1 236.592 168.583C236.431 168.065 235.198 167.185 233.857 166.616C231.069 165.425 230.104 164.183 228.764 160.095C228.228 158.49 227.531 157.041 227.209 156.937C226.888 156.834 226.62 156.937 226.673 157.196C227.37 160.974 221.151 165.995 214.503 166.926C211.983 167.34 211.126 168.272 210.965 170.756C210.804 174.172 210.965 174.845 212.68 179.089C214.557 183.747 217.291 188.043 221.044 192.236C225.387 197.152 226.298 198.705 225.44 199.689C224.636 200.568 222.17 201.811 220.776 202.018C219.114 202.276 219.007 202.587 219.972 204.709C220.454 205.848 220.937 207.09 221.044 207.504C221.151 207.97 221.366 208.85 221.526 209.419C221.794 210.247 221.473 210.816 220.24 211.644C217.237 213.715 213.967 214.129 210.911 212.835C207.426 211.334 206.568 209.781 206.408 204.761C206.3 199.896 205.818 194.668 205.443 194.047C205.282 193.84 205.443 193.478 205.764 193.271C206.408 192.908 207.426 194.047 206.997 194.668C206.89 194.927 208.177 196.531 209.946 198.343C213.056 201.5 213.163 201.552 213.967 200.568C214.396 199.999 214.825 199.119 214.825 198.602C214.825 197.411 216.058 197.463 217.237 198.757C218.524 200.103 220.401 199.896 220.615 198.446C220.722 197.722 220.293 197.049 219.435 196.48C218.578 195.962 218.095 195.237 218.149 194.461C218.202 193.84 217.345 192.132 216.272 190.683C215.2 189.234 214.289 187.784 214.289 187.526C214.289 187.267 213.699 186.491 212.948 185.818L211.554 184.576L212.359 186.646C212.788 187.836 213.592 189.699 214.181 190.786C215.146 192.65 215.575 194.409 215.415 195.962C215.361 196.687 213.538 197.204 212.841 196.738C212.251 196.324 210 190.683 210 189.544C210 189.078 209.571 187.37 209.088 185.766C208.23 182.971 208.07 182.816 206.729 183.075C205.925 183.23 205.121 183.075 204.96 182.764C204.746 182.454 204.317 182.298 204.049 182.505C203.781 182.661 203.995 183.437 204.585 184.213C205.979 186.076 206.515 188.923 205.55 188.923C203.405 188.923 200.993 183.592 200.671 178.158C200.51 175.984 200.403 174.172 200.349 174.172C200.296 174.172 200.189 173.81 200.081 173.396C199.116 168.479 196.972 163.2 193.326 156.472C190.967 152.124 188.823 148.449 188.501 148.294C187.965 147.932 187.911 148.915 188.018 156.057C188.179 166.357 188.555 173.448 188.93 174.069C189.144 174.431 189.359 175.001 189.412 175.363C189.52 175.777 190.163 176.967 190.967 178.054C191.771 179.141 192.415 180.331 192.522 180.746C192.576 181.108 192.79 181.677 192.951 181.988C193.165 182.298 193.487 183.282 193.648 184.213C193.862 185.455 193.648 186.128 192.683 187.163C191.986 187.888 191.074 188.509 190.645 188.613C190.217 188.664 189.252 189.13 188.447 189.648C186.088 191.149 182.175 189.907 180.245 187.008C179.012 185.197 179.548 184.11 181.263 184.886C182.336 185.3 182.818 185.3 183.408 184.783C184.158 184.213 184.158 184.006 183.408 182.661C182.979 181.781 182.014 180.901 181.317 180.642C179.816 180.073 179.923 181.211 179.655 167.03C179.494 158.645 179.387 157.662 178.315 155.799C177.135 153.78 177.081 153.728 176.009 154.66C175.366 155.178 173.811 156.213 172.471 156.937C171.13 157.714 169.254 159.111 168.235 160.146C166.252 162.113 166.305 161.44 167.431 169.307C167.699 170.86 167.431 171.481 165.769 173.448C163.249 176.346 162.499 176.76 160.944 176.087C159.121 175.259 156.762 171.999 156.762 170.239C156.762 168.738 156.762 168.738 155.636 169.721C154.993 170.239 152.205 172.257 149.417 174.224C146.629 176.139 140.947 180.538 136.818 184.006C132.69 187.474 125.721 193.322 121.271 196.997L113.229 203.674L108.457 203.519L103.686 203.415L105.026 205.071C105.777 206.003 107.117 207.193 108.028 207.711L109.69 208.642L111.781 206.676C112.907 205.589 113.979 204.295 114.194 203.829C114.623 202.69 116.017 203.156 116.553 204.605C117.089 206.055 117.143 209.108 116.66 209.108C116.446 209.108 116.338 210.506 116.338 212.265C116.446 215.164 116.285 215.526 114.891 216.717C113.604 217.752 112.907 217.959 111.138 217.752C108.993 217.545 106.527 217.079 104.919 216.613C103.847 216.303 102.613 218.218 103.042 219.511C103.257 220.133 103.847 220.495 104.704 220.495C105.401 220.495 105.991 220.65 105.991 220.857C105.991 221.426 104.275 223.083 103.632 223.083C103.31 223.134 102.077 223.911 100.898 224.894C99.1286 226.343 98.9142 226.706 99.7184 227.016C100.898 227.43 100.898 229.086 99.7184 229.19C99.1823 229.242 95.6438 229.293 91.8909 229.293C84.9749 229.242 82.6696 229.501 83.2057 230.329C83.3129 230.536 85.0821 230.898 87.0658 231.053C95.9119 231.933 97.8956 232.192 99.9328 232.968C100.737 233.279 101.488 233.486 101.595 233.486C102.292 233.279 102.774 233.538 102.774 234.107C102.774 234.987 101.809 235.039 97.413 234.417C95.483 234.159 90.9259 233.848 87.2803 233.693C83.2593 233.589 80.3642 233.227 79.8817 232.865C79.292 232.347 78.8095 232.399 77.5228 233.124C76.5041 233.693 75.3782 233.952 74.5741 233.745C73.8771 233.538 73.2337 233.486 73.1265 233.538C72.8048 233.745 71.1428 232.347 71.1428 231.881C71.1428 231.674 73.0729 231.364 75.4318 231.26C78.5414 231.157 79.9353 230.846 80.6323 230.225C81.4901 229.345 81.222 229.345 75.1102 229.552C63.6371 230.018 48.6255 230.225 48.6255 229.915C48.6255 229.759 49.1616 229.086 49.805 228.414L50.9309 227.223H49.3761C48.5183 227.171 47.2316 226.861 46.481 226.447C45.7304 226.033 44.3365 225.722 43.3715 225.671C42.4064 225.671 41.1734 225.412 40.6372 225.049C40.0475 224.687 39.2433 224.635 38.6536 224.894C36.241 225.929 33.0778 225.049 33.0778 223.341C33.0778 222.72 34.2573 222.669 40.9053 222.927C47.2316 223.186 48.7864 223.134 49.1616 222.513C49.4297 222.151 49.5369 219.926 49.4833 217.596C49.3225 214.18 49.0008 212.938 47.8749 211.023C46.4274 208.642 45.6232 208.073 43.3179 207.763C41.227 207.504 35.7049 204.709 33.2387 202.639C32.0056 201.655 30.29 199.585 29.4322 198.084C28.5744 196.635 26.3226 192.908 24.4462 189.855C18.0663 179.503 15.1712 174.69 13.3484 171.326C12.3297 169.463 10.7214 166.926 9.75633 165.633C8.84491 164.339 7.02208 161.44 5.73538 159.163C4.44867 156.886 2.62584 153.677 1.6072 152.02C0.266883 149.898 -0.162019 148.656 0.0524321 147.776L0.374108 146.534L2.67945 147.983C5.14564 149.588 9.48826 151.141 11.4183 151.141C12.1153 151.141 13.2948 150.882 14.0453 150.52C15.2248 150.002 15.6001 150.105 16.7796 151.192C18.1159 152.431 18.2798 152.434 31.7754 152.742L31.8984 152.745C46.8563 153.056 66.4785 152.952 68.1941 152.538C68.7839 152.383 72.4295 152.124 76.236 151.917C80.0962 151.71 84.546 151.244 86.1544 150.882C87.7628 150.468 90.3898 150.002 91.9982 149.847C93.6065 149.64 95.2685 149.433 95.7511 149.329C96.2336 149.277 98.3245 149.019 100.362 148.812C102.453 148.604 106.902 147.621 110.28 146.638C113.658 145.654 116.928 144.723 117.518 144.567C118.108 144.412 118.858 144.102 119.126 143.895C119.448 143.636 122.45 142.859 125.828 142.083C132.797 140.582 133.923 140.272 138.427 138.719C141.644 137.58 144.592 135.872 144.592 135.148C144.592 134.423 135.21 131.059 130.867 130.231C128.562 129.765 122.772 129.196 118.054 128.937C106.795 128.316 104.275 128.782 108.243 130.748C109.798 131.525 112.264 131.939 120.198 132.819C124.756 133.336 126.9 134.009 126.9 134.992C126.846 136.856 125.56 137.684 122.772 137.684C120.788 137.684 120.091 137.891 120.091 138.46C120.091 138.874 120.306 139.236 120.574 139.236C120.788 139.236 121.003 139.547 121.003 139.961C121.003 141.255 119.448 141.307 117.839 140.013C115.963 138.46 115.159 138.408 112.853 139.702C111.888 140.272 109.905 140.841 108.404 141.048C104.436 141.514 100.791 142.342 97.9492 143.429C96.5016 143.946 94.1963 144.36 90.4434 144.671C89.1031 144.774 85.8863 145.137 83.2057 145.396C80.5787 145.706 77.898 145.965 77.3083 145.913C73.6626 145.758 58.9728 146.638 58.115 147.052C57.5252 147.362 56.2385 147.466 55.1126 147.259C54.0404 147.052 52.4856 146.793 51.6278 146.689C49.2153 146.431 48.7864 145.654 50.1803 144.205C51.0381 143.325 51.2525 142.652 50.9845 141.617C50.8236 140.893 50.4483 140.116 50.1803 139.961C49.9122 139.806 49.6978 139.133 49.6978 138.46C49.6978 136.959 48.6791 136.597 46.2666 137.218L46.2113 137.233C44.3891 137.736 44.345 137.748 45.1943 138.978C45.9985 140.168 45.9449 140.323 44.6046 141.514C42.889 143.067 43.157 144.257 45.2479 144.516C46.9635 144.671 47.3388 146.224 45.6768 146.275C45.0871 146.275 44.0148 146.586 43.3179 146.948C42.4064 147.466 39.7794 147.569 32.8634 147.362C23.2131 147.104 20.318 146.845 17.9591 145.913C16.726 145.396 16.5651 145.137 16.7796 143.532C17.1013 141.1 17.1549 141.048 19.9963 140.272C21.7656 139.806 22.7306 139.754 23.3739 140.116C24.0173 140.53 24.607 140.427 25.6257 139.702C26.5371 139.081 28.7888 138.564 32.0592 138.201C37.1524 137.632 40.0475 136.856 40.0475 136.131C40.0475 135.044 44.1221 134.423 55.3271 133.802C60.5811 133.491 63.5298 132.56 64.0124 131.111C64.4949 129.765 58.3294 129.299 55.3271 130.438C52.8073 131.421 52.2176 131.525 46.7491 132.198C41.1197 132.922 30.9333 135.096 28.7888 136.079C27.3949 136.7 23.4276 136.752 23.4276 136.183C23.4276 135.872 23.4812 135.614 23.5884 135.614C23.642 135.614 25.0359 135.148 26.6443 134.578C28.2527 134.009 30.2364 133.543 31.0406 133.543C31.8447 133.543 33.9893 133.077 35.7585 132.456C39.1897 131.318 48.4647 129.351 56.6674 128.057C59.4553 127.591 62.2431 127.177 62.8329 127.022C64.066 126.815 66.2641 122.519 66.6394 119.621C66.8002 118.637 67.0683 117.55 67.2827 117.292C67.5508 116.981 67.7652 115.894 67.8725 114.911C67.9797 113.927 68.1941 112.84 68.355 112.582C68.5694 112.271 68.7839 111.495 68.8375 110.77C68.9983 109.425 70.285 104.249 71.2501 100.678C72.1615 97.4687 72.3223 94.622 71.5717 92.9658C70.9284 91.4131 70.8748 89.6534 71.3573 85.047C71.7326 81.7863 72.3223 80.7512 74.5204 79.716C76.2896 78.8879 76.3969 78.6809 77.8444 72.2113C78.3805 69.934 78.9167 67.812 79.1311 67.5532C79.292 67.2426 79.4528 66.6216 79.5064 66.104C79.56 65.6382 79.6136 65.1724 79.7209 65.0688C79.7745 65.0171 79.9353 63.9302 80.0425 62.688C80.2034 61.3941 80.4714 60.1519 80.6859 59.8414C80.954 59.5309 81.1684 58.444 81.2756 57.4606C81.3829 56.4772 81.7045 55.3386 81.9726 54.9763C82.2943 54.6657 82.4015 54.3552 82.2407 54.3552C82.0798 54.3552 82.4551 52.6472 82.9912 50.5769C83.581 48.5584 84.1707 46.2811 84.3316 45.5565C84.4924 44.8319 84.7068 43.9003 84.8141 43.4862C84.9749 43.0722 85.1894 41.7782 85.4038 40.6396C86.208 35.6192 87.5483 33.2901 92.8024 27.8039C95.6438 24.9055 97.9492 22.2141 97.9492 21.8518C97.9492 21.4895 97.2522 19.8851 96.3944 18.2289C95.5902 16.6244 94.6788 14.7094 94.4643 13.9848C94.2499 13.2602 93.124 11.2417 91.9446 9.48195L89.8 6.22125L90.8187 4.56505ZM99.5576 12.9496C100.523 12.9496 100.147 10.4136 99.075 9.84422C98.4853 9.58545 97.9492 9.32666 97.7883 9.32666C97.4131 9.32666 96.8769 9.99951 96.8769 10.4653C96.8769 11.0346 98.9142 12.9496 99.5576 12.9496ZM102.238 19.8333C104.061 23.8704 105.294 23.6633 104.007 19.5228C103.471 17.7113 103.042 17.0902 102.238 17.0902C100.951 17.0902 100.951 16.9349 102.238 19.8333ZM98.4853 26.4064C98.4853 26.9758 99.1823 26.6652 101.166 25.3713C102.131 24.7502 101.327 24.7502 99.7184 25.3713C99.0214 25.6301 98.4853 26.0959 98.4853 26.4064ZM107.868 27.6486C108.296 27.4416 108.672 27.0275 108.672 26.6135C108.672 25.7336 107.492 25.6819 106.634 26.51C105.83 27.2863 105.777 28.839 106.527 29.2531C106.849 29.4083 107.063 29.2013 107.063 28.7355C107.063 28.3215 107.439 27.8039 107.868 27.6486ZM94.9469 32.0997C95.8583 32.0997 97.3058 29.9777 97.0378 29.0978C96.8769 28.7873 96.6089 28.4767 96.3944 28.4767C95.7511 28.4767 90.4434 34.0147 90.4434 34.6875C90.4434 35.8262 92.856 34.9463 93.5529 33.4971C93.9282 32.7208 94.5716 32.0997 94.9469 32.0997ZM111.406 31.5821C111.996 31.2716 112.317 30.8058 112.157 30.4952C111.728 29.8741 110.441 29.8741 110.012 30.547C109.422 31.4786 110.28 32.1515 111.406 31.5821ZM100.898 33.7042C100.737 33.3936 101.005 32.5655 101.488 31.8409C102.989 29.6671 101.273 30.2882 98.6461 32.9278C96.3944 35.1534 96.2872 35.3086 97.2522 35.9815C97.7883 36.3955 98.5389 36.7578 98.8606 36.7578C99.7184 36.7578 101.327 34.377 100.898 33.7042ZM97.8419 39.9668L96.7161 38.9316C95.2149 37.6895 94.4643 37.4824 91.8373 37.6895L89.7464 37.8447L91.7837 39.8632L91.7875 39.867C93.7675 41.8301 93.8204 41.8826 92.9096 43.1757C92.4271 43.952 91.6229 44.5731 91.0868 44.6249C90.6042 44.6249 89.9609 44.7284 89.6392 44.7802C89.3711 44.8837 88.9422 44.9354 88.6742 44.9872C88.4597 44.9872 88.6206 45.6083 89.1031 46.2293C89.8537 47.368 89.8537 47.5233 88.835 48.4031C88.0308 49.076 87.8164 49.9558 87.87 51.8708C87.87 53.2165 88.1381 54.5104 88.3525 54.6657C89.2639 55.1833 88.835 57.3053 87.6019 58.3922C86.905 59.0133 86.208 59.4274 86.0472 59.2721C85.8863 59.1168 85.4574 59.3756 85.0285 59.8414C84.546 60.4625 84.2779 62.3257 84.2243 65.6899C84.1707 69.8822 83.849 72.7289 83.4737 72.7289C83.4201 72.7289 83.3129 73.1947 83.2057 73.764C83.0448 74.3333 82.884 75.3685 82.7232 76.0931C81.4365 82.1486 81.4901 84.7365 82.8304 85.7199C83.581 86.2892 83.7954 86.2374 83.9026 85.5128C84.0099 85.047 84.3852 84.3742 84.7605 84.1154C85.1357 83.8048 85.6183 82.9767 85.8327 82.1486C85.9935 81.3723 86.4224 80.7512 86.6905 80.7512C87.7628 80.7512 87.2266 78.7844 86.1008 78.5257C85.1357 78.2669 84.9749 77.9563 85.2966 76.6106C85.5646 75.1615 86.1544 74.2298 88.835 71.0727C89.1567 70.6586 89.1567 70.3481 88.7814 70.0893C88.4061 69.8822 88.3525 68.8989 88.5669 67.4497C88.7814 66.1557 88.6206 64.4478 88.2989 63.3609C87.7092 61.7564 87.7628 61.3941 88.7278 60.4107C89.8 59.2203 90.6579 57.7711 92.4807 53.7341C94.518 49.3347 95.6974 51.7673 94.518 57.9781C93.7674 61.9634 93.6602 64.1372 94.1963 64.4478C94.8932 64.8618 96.2872 61.7564 96.0191 60.359C95.9119 59.7379 95.6974 58.651 95.483 57.8746C95.2149 56.7878 95.4294 56.3737 96.3408 55.9079C97.9492 55.0798 97.6811 51.405 95.9119 50.0593C94.8933 49.2312 94.7324 48.7654 95.0005 46.9539C95.1613 45.7635 95.8583 43.6933 96.5552 42.3476L97.8419 39.9668ZM88.1917 42.037C88.5133 42.3476 88.835 42.3476 89.1031 41.9335C89.3175 41.623 89.2639 41.1054 88.9422 40.7949C88.6206 40.4843 88.2989 40.4843 88.0308 40.8984C87.8164 41.2089 87.87 41.7265 88.1917 42.037ZM98.9678 47.2645C99.6648 47.9373 99.9328 47.7303 100.201 46.3846C100.255 45.867 100.04 45.2977 99.7184 45.1942C98.807 44.8837 98.2172 46.5399 98.9678 47.2645ZM117.035 58.1334C116.07 56.7878 114.14 53.3718 112.693 50.5769C111.245 47.8338 109.905 45.5565 109.69 45.5565C109.53 45.5565 109.154 46.7987 108.94 48.2479C108.511 51.0427 108.35 51.6638 108.136 51.8708C108.082 51.9744 107.975 52.4919 107.868 53.0612C107.171 57.3571 107.01 58.4957 106.742 60.3072C106.581 61.4459 106.366 63.0503 106.259 63.9302C106.045 65.4829 105.669 67.9155 105.24 71.0727C105.08 71.9525 104.812 73.4017 104.597 74.2816C104.436 75.1097 104.222 76.3001 104.115 76.8694C104.061 77.4387 103.954 77.9046 103.847 77.9046C103.686 77.9046 103.31 80.3889 103.096 83.2873C102.935 85.4611 103.096 86.2374 103.9 87.0138C105.669 88.7218 107.921 88.9288 123.308 89.0323C129.741 89.0841 135.746 89.3428 136.604 89.6534C139.821 90.7403 140.41 88.7735 138.909 82.1486L138.051 78.3186L129.527 74.2298C124.809 72.0043 121.003 69.934 120.949 69.6235C120.949 69.3647 120.895 68.019 120.895 66.6216C120.895 65.2759 120.735 64.189 120.52 64.189C120.306 64.189 119.823 63.3609 119.448 62.3775C119.126 61.3941 118 59.4791 117.035 58.1334ZM117.518 49.1795C118 50.7322 119.233 52.0779 119.716 51.6121C119.93 51.4568 119.394 50.5252 118.59 49.5935C117.25 48.0408 117.143 47.9891 117.518 49.1795ZM249.566 58.4957C249.351 58.3405 248.601 57.15 247.904 55.9079C247.26 54.6657 246.403 53.5788 246.027 53.4235C245.116 53.1648 245.223 53.3718 246.671 55.9596C247.421 57.2018 248.118 58.8063 248.279 59.5309C249.244 63.8267 249.512 65.2241 249.191 65.2241C249.03 65.2241 249.298 65.4829 249.887 65.7934C251.442 66.6733 251.818 65.4311 250.906 62.4292C250.477 60.9801 250.048 59.5309 250.048 59.2721C249.995 58.9615 249.78 58.651 249.566 58.4957ZM137.515 58.7027C138.051 59.0133 139.821 57.7194 139.392 57.3053C138.748 56.6325 137.086 56.943 137.086 57.6676C137.086 58.0817 137.247 58.5475 137.515 58.7027ZM216.648 60.0484C217.452 59.3756 218.042 58.5475 218.042 58.1334C218.042 57.1501 217.291 57.3053 215.736 58.7027C214.825 59.4791 214.557 60.1519 214.825 60.6178C215.2 61.1871 215.575 61.0836 216.648 60.0484ZM126.632 62.6363C128.24 62.6363 128.24 62.481 127.114 60.773C126.632 60.0484 125.774 59.2721 125.184 58.9615C124.273 58.4957 124.219 58.5992 124.541 59.8932C125.077 62.481 125.238 62.6363 126.632 62.6363ZM140.732 63.4644C139.874 62.8433 139.231 62.067 139.231 61.7564C139.231 60.7213 138.266 60.5143 137.891 61.4976C137.14 63.1021 137.194 63.6196 138.212 64.4995C138.909 65.0688 139.606 65.2241 140.678 64.9653L142.18 64.603L140.732 63.4644ZM213.699 67.0356C213.967 66.7768 214.342 65.7417 214.557 64.8101C214.718 63.9302 214.825 63.1538 214.664 63.1538C214.181 63.1538 212.627 65.1206 211.447 67.2944C210.321 69.3647 210.214 70.2445 210.321 75.0579C210.482 81.1135 210.643 82.1486 211.983 85.1505C213.377 88.3595 218.953 95.7607 219.918 95.7607C220.829 95.7607 219.918 93.6904 218.417 92.293C216.326 90.3262 213.913 85.8234 213.431 82.9767C213.27 81.8898 212.895 80.6477 212.68 80.2336C212.198 79.3537 212.144 71.435 212.627 70.6586C212.788 70.3481 213.002 69.5717 213.109 68.8471C213.216 68.1743 213.484 67.3461 213.699 67.0356ZM141 70.0375C140.625 69.1059 137.891 67.7602 135.8 67.5532C134.888 67.3979 133.334 67.2426 132.422 67.0874C129.902 66.7251 130.224 67.4497 133.334 69.0541C134.835 69.8305 136.014 70.8139 136.014 71.2797C136.014 71.7455 136.443 72.5736 136.926 73.0912C137.783 74.0228 137.891 73.971 139.553 72.4183C140.518 71.4867 141.161 70.4516 141 70.0375ZM310.631 71.5902C312.293 70.8139 312.453 70.6068 312.185 69.1576C311.971 68.2778 311.649 67.3979 311.435 67.1909C311.06 66.8286 306.502 71.4867 306.502 72.1595C306.502 72.7806 308.808 72.4701 310.631 71.5902ZM252.783 77.2835C252.836 74.9544 252.729 72.2631 252.461 71.3832C251.549 67.812 250.96 69.4164 251.013 75.5755C251.013 80.8547 251.121 81.7863 251.818 81.6828C252.461 81.5276 252.675 80.5442 252.783 77.2835ZM223.028 77.3352C222.974 76.6624 222.599 75.472 222.223 74.6956C220.883 71.9525 218.524 73.1429 218.792 76.3519C219.167 80.8029 224.421 88.463 227.531 89.0841C228.603 89.2911 229.622 89.1876 230.212 88.7735C231.016 88.2042 231.016 88.0489 229.783 87.4278C229.086 87.0655 228.014 86.7032 227.424 86.5997C226.834 86.4962 226.03 86.3409 225.708 86.1857C224.904 85.9269 224.797 84.0636 225.547 83.5978C226.62 82.9767 226.083 80.8029 224.636 79.716C223.778 79.095 223.081 78.0081 223.028 77.3352ZM201.314 79.6643C200.081 79.0432 197.883 78.1633 196.382 77.6458C194.881 77.18 192.79 76.4036 191.771 75.9896C190.056 75.265 189.788 75.265 188.287 76.1448C187.429 76.6624 185.767 77.1282 184.641 77.1282C182.818 77.1282 182.175 77.4905 179.709 79.9748C178.154 81.5275 176.545 83.5978 176.17 84.5812C175.795 85.5646 174.937 86.5997 174.24 86.9102C172.953 87.4796 173.007 88.7217 174.454 89.2393C175.312 89.5499 179.119 89.8086 189.895 90.3262C194.72 90.5332 196.06 90.4297 197.025 89.7569C199.492 88.1007 201.154 87.9972 202.816 89.3428C204.585 90.8438 206.3 91.3096 208.123 90.8955C210.107 90.4297 210.375 89.1358 209.035 86.9102C208.391 85.8751 207.748 83.9601 207.587 82.7697C206.89 77.9046 206.729 77.1282 206.247 77.1282C205.979 77.1282 205.389 77.9563 204.96 78.9397C204.531 79.9231 203.995 80.7512 203.834 80.7512C203.673 80.7512 202.547 80.2854 201.314 79.6643ZM307.521 77.8011C306.717 78.2669 306.288 78.1633 305.001 76.9729C304.197 76.1966 303.018 75.5755 302.482 75.5755C301.624 75.5755 301.677 75.7825 303.018 77.1282C304.465 78.6292 304.519 78.7327 303.661 79.5608C302.857 80.3371 302.589 80.3889 301.624 79.8196C300.98 79.4055 300.391 79.2502 300.23 79.4055C299.747 79.8713 301.624 84.1154 303.178 86.1339C305.109 88.5665 306.181 88.6182 305.109 86.1857C304.572 84.8917 304.465 83.8566 304.787 82.6662C305.162 81.3205 305.537 80.9582 307.092 80.6994C309.987 80.2854 310.363 79.8713 309.398 78.4221C308.701 77.387 308.379 77.2835 307.521 77.8011ZM143.574 85.7716C143.52 85.5646 143.895 84.6847 144.324 83.8566C145.075 82.4592 145.075 82.3039 144.11 81.8381C142.93 81.217 142.448 81.9416 142.448 84.5294C142.448 86.3409 143.413 88.4112 143.574 86.962C143.627 86.548 143.627 85.9786 143.574 85.7716ZM307.789 85.7716C308.218 85.254 309.022 84.4777 309.558 84.1154C310.684 83.2355 310.416 83.132 309.076 83.9084C308.54 84.1671 307.843 84.9435 307.575 85.5646C307.039 86.5997 307.039 86.6515 307.789 85.7716ZM251.871 88.463C251.818 87.1173 252.032 85.5128 252.354 84.9435C253.48 82.8215 251.442 84.1154 249.941 86.3927C249.727 86.8067 249.459 87.6349 249.351 88.2042C249.298 88.8253 249.191 89.4981 249.137 89.8086C248.815 91.2061 249.244 92.1377 250.156 92.1377C251.657 92.1377 252.032 91.2578 251.871 88.463ZM91.194 88.2559C91.5693 87.7384 91.7837 86.8585 91.6229 86.3409C91.3012 85.1505 90.8723 85.1505 89.4248 86.3927C88.2989 87.3243 88.6742 88.463 89.9073 87.7384C90.2289 87.5831 90.4434 87.8419 90.4434 88.3077C90.4434 89.1358 90.497 89.1358 91.194 88.2559ZM84.9749 92.6035C85.1357 90.4815 84.9749 90.1709 83.7418 89.6534C80.9539 88.4112 79.8281 89.0323 79.3992 91.9307C79.2383 93.4834 81.222 95.0878 83.2057 95.0361C84.7068 94.9843 84.8141 94.8808 84.9749 92.6035ZM128.991 94.0009C130.01 92.8623 129.313 92.2412 126.739 91.9307C124.648 91.6719 106.527 91.2578 105.562 91.4649C102.774 92.0342 102.238 92.2412 102.238 92.6035C102.238 92.8105 102.774 93.2764 103.471 93.6386C104.436 94.1562 104.972 94.1045 106.259 93.4834C108.296 92.4483 108.564 92.4482 110.87 93.6386C112.425 94.4668 114.033 94.622 120.52 94.6738C126.9 94.7773 128.455 94.622 128.991 94.0009ZM241.578 92.707C242.06 91.8789 241.899 91.7237 240.13 91.4131C236.592 90.8438 231.981 91.3096 231.981 92.1895C231.981 93.0176 234.608 93.6904 237.878 93.6904C240.452 93.6904 241.149 93.4834 241.578 92.707ZM153.599 95.0361C154.993 96.0712 156.28 95.916 157.245 94.4668C157.674 93.7939 157.995 92.8623 157.888 92.4483C157.727 91.7754 157.62 91.7754 156.709 92.4483C156.119 92.8623 154.993 93.1729 154.135 93.1729C152.42 93.1729 152.152 94.0009 153.599 95.0361ZM259.538 93.7939C260.235 93.3281 260.664 92.6035 260.503 92.2412C260.02 90.792 257.715 92.086 257.715 93.7939C257.715 94.9326 258.037 94.9843 259.538 93.7939ZM271.386 92.6553C271.815 92.6553 272.298 92.3965 272.458 92.1377C272.673 91.8272 272.19 91.6201 271.386 91.6201C270.582 91.6201 270.099 91.8272 270.314 92.1377C270.475 92.3965 270.957 92.6553 271.386 92.6553ZM210.804 96.2783C213.699 96.2783 214.557 95.0879 212.788 93.5351C211.447 92.3447 210.697 92.4482 209.678 93.9492C208.659 95.4501 209.035 96.2783 210.804 96.2783ZM188.876 94.7256C189.52 95.3466 190.914 94.4668 190.485 93.7422C190.27 93.4316 189.895 93.1729 189.627 93.1729C188.876 93.1729 188.394 94.2598 188.876 94.7256ZM229.3 97.1064C229.3 96.537 229.139 96.2783 228.925 96.4853C228.71 96.6405 227.692 95.9677 226.566 94.9326L224.582 93.0693L223.617 94.5185C223.081 95.3466 222.331 96.33 221.955 96.6923C221.58 97.0546 221.258 97.6239 221.258 97.8827C221.258 98.5556 223.993 102.489 224.475 102.489C225.333 102.489 229.3 98.038 229.3 97.1064ZM245.974 97.7792C247.904 98.452 251.013 97.7274 251.121 96.537C251.228 95.8642 250.638 95.1396 249.405 94.3633L247.582 93.2246L246.188 94.7773C244.526 96.6923 244.526 97.2099 245.974 97.7792ZM233.965 100.781C244.044 99.3837 245.17 98.7626 240.184 97.1064C238.79 96.6406 237.449 96.2783 237.128 96.2783C235.948 96.33 232.249 98.245 231.23 99.2802C230.319 100.315 230.319 100.419 231.123 100.729C231.606 100.885 232.892 100.936 233.965 100.781ZM83.2593 100.057C84.2779 99.6942 83.581 98.4003 81.8118 97.5722C79.6673 96.4853 79.1847 96.5888 78.8631 98.3485C78.6486 99.1766 78.3269 99.9012 78.0589 99.9012C77.7908 99.9012 77.63 100.057 77.63 100.264C77.6836 100.522 77.63 100.781 77.5764 100.936C77.3619 101.557 77.0402 103.317 76.9866 104.301C76.933 104.87 76.7186 105.905 76.4505 106.63C76.1824 107.354 75.9144 108.752 75.7535 109.735C75.6463 110.718 75.271 112.685 74.8957 114.134C74.306 116.412 74.0915 117.499 73.7162 120.449C73.6626 120.811 73.4482 121.122 73.1801 121.122C72.9657 121.122 72.7512 122.105 72.7512 123.347C72.7512 124.589 72.4832 125.831 72.1079 126.194C71.6254 126.66 71.7326 126.867 72.4831 127.125C74.6813 127.953 75.8071 125.521 76.7186 117.809C76.8794 116.36 77.1475 114.445 77.2547 113.617C77.3619 112.737 77.4691 111.754 77.5228 111.391C77.5228 111.081 77.898 110.77 78.3269 110.77C79.0775 110.77 79.7209 112.271 79.7209 114.341C79.7209 115.377 79.8281 115.428 80.5251 114.911C80.954 114.548 81.3292 113.927 81.3292 113.513C81.3292 113.151 81.7045 112.685 82.1334 112.53C82.7768 112.271 82.8304 112.012 82.187 110.874C81.1148 108.803 81.919 100.574 83.2593 100.057ZM95.0005 99.6942C96.9305 100.678 97.2522 100.626 97.6811 99.3319C98.11 98.038 97.8956 97.7274 96.9305 98.3485C96.5016 98.5556 95.8583 98.6591 95.483 98.5038C93.9818 97.9863 93.6065 98.9696 95.0005 99.6942ZM142.877 101.816C142.126 99.4354 141.268 98.9179 137.515 98.6073C133.28 98.2968 107.76 97.9345 104.275 98.1933L101.22 98.4003L100.63 101.35C100.308 102.955 99.8792 104.766 99.6648 105.336C99.075 107.251 98.807 108.803 98.2709 113.358C97.8956 116.308 97.3594 120.242 97.145 121.536C96.5552 124.538 96.5016 125.314 96.8769 125.521C97.0914 125.676 100.523 125.883 104.436 126.038C118.858 126.556 124.541 126.867 125.828 127.022C126.578 127.177 128.508 127.384 130.117 127.539C133.923 127.953 137.515 129.092 142.394 131.369C147.595 133.854 148.023 134.475 146.629 137.58C145.986 138.926 145.343 140.116 145.182 140.272C144.753 140.634 143.574 142.704 140.839 147.776C136.765 155.488 135.156 158.128 133.655 160.095C132.315 161.802 132.261 162.01 133.119 162.01C133.709 162.01 134.888 161.337 135.8 160.56C136.711 159.784 138.105 158.697 138.963 158.128C139.767 157.558 140.678 156.834 141.054 156.523C141.804 155.799 146.361 153.004 146.79 152.952C147.38 152.952 150.275 150.312 151.24 148.863C152.259 147.362 152.259 147.155 150.704 140.013C150.382 138.667 149.9 135.821 149.685 134.113C149.578 133.388 149.471 132.767 149.417 132.767C149.364 132.767 149.257 132.198 149.096 131.473C148.399 127.436 147.594 124.123 146.683 121.07C146.093 119.207 145.664 117.447 145.718 117.188C145.772 116.929 145.718 116.619 145.664 116.463C145.611 116.308 145.45 115.377 145.343 114.393C145.075 111.754 143.574 104.094 142.877 101.816ZM87.7628 99.6425C88.4597 100.057 89.4784 99.4354 89.1031 98.8143C88.8886 98.5556 88.567 98.3485 88.2989 98.3485C87.5483 98.3485 87.173 99.2802 87.7628 99.6425ZM163.142 106.681C162.981 103.783 162.606 101.04 162.284 100.678C161.909 100.264 160.193 99.9012 158.103 99.7977L154.511 99.6425L154.618 103.265C154.671 105.232 154.939 107.717 155.261 108.7C155.529 109.683 156.012 111.909 156.333 113.617C156.655 115.325 157.191 117.861 157.459 119.31C157.781 120.708 158.156 122.467 158.263 123.192C158.531 125.003 159.068 127.229 159.872 129.92C160.301 131.214 160.73 133.699 160.944 135.458C161.266 138.978 161.641 140.272 162.284 140.272C162.713 140.272 165.448 138.201 169.361 134.992L171.881 132.922L167.86 125.314C163.571 117.188 163.625 117.499 163.142 106.681ZM195.363 103.576C194.559 100.885 194.291 100.522 192.844 100.212C191.932 100.057 186.196 99.746 180.084 99.5907C170.005 99.2802 168.879 99.3319 168.021 100.108C166.895 101.195 166.788 104.559 167.86 106.526C168.289 107.302 168.664 109.321 168.772 111.029C168.879 112.737 169.093 114.341 169.308 114.652C169.522 114.911 169.844 115.946 170.058 116.826C170.487 118.948 171.452 119 173.168 116.981C173.918 116.101 174.669 115.428 174.83 115.428C174.937 115.428 175.634 116.308 176.277 117.343C176.974 118.43 178.1 119.724 178.743 120.242C179.44 120.759 179.977 121.536 179.977 121.95C179.977 123.037 181.853 126.401 182.979 127.384C183.569 127.85 184.694 128.368 185.552 128.575C187.59 129.04 188.501 130.231 188.555 132.508C188.608 134.889 190.217 140.168 191.396 141.876C191.879 142.601 193.112 143.636 194.13 144.153C195.417 144.826 195.846 145.344 195.631 146.068C195.524 146.586 195.203 147 194.935 147C194.291 147 194.774 148.812 196.65 152.849C197.562 154.919 198.687 157.3 199.063 158.128C199.438 159.008 199.867 160.56 199.974 161.544C200.081 162.527 200.349 163.614 200.564 163.976C200.778 164.339 200.832 164.597 200.617 164.597C200.457 164.597 200.564 165.063 200.886 165.684C201.368 166.461 201.314 166.926 200.832 167.496C200.457 167.91 200.457 168.22 200.778 168.22C201.743 168.22 203.191 172.568 203.137 175.622C203.137 178.882 203.834 179.866 204.638 177.847C205.228 176.346 206.3 176.139 207.319 177.278C208.016 178.106 209.732 178.365 209.249 177.588C208.981 177.174 208.391 172.568 208.177 168.841C208.123 167.91 208.284 166.978 208.499 166.875C208.713 166.719 208.606 165.995 208.177 165.218C206.086 161.13 205.871 155.126 207.855 154.608C208.82 154.35 211.072 151.658 212.788 148.604C214.235 146.12 214.986 146.586 214.61 149.691C214.074 154.608 213.216 156.886 211.394 158.335C209.517 159.836 211.018 164.08 213.431 164.08C214.074 164.08 215.2 163.51 215.897 162.786C216.808 161.854 217.505 161.595 218.417 161.802C220.132 162.217 224.368 159.37 224.475 157.714C224.475 157.248 226.459 152.952 227.531 150.985C228.335 149.536 228.282 149.484 227.156 149.691C225.976 149.847 225.547 150.468 223.081 155.54C222.331 156.989 221.205 158.076 219.007 159.318C215.951 161.078 214.289 161.233 214.289 159.732C214.289 159.37 214.878 158.852 215.575 158.697C217.345 158.283 219.972 155.178 222.384 150.675C224.582 146.586 224.743 147.569 220.561 141.669C218.899 139.392 218.417 138.098 217.988 135.044C217.398 131.111 215.2 124.796 214.235 124.175C213.913 124.02 212.788 124.02 211.715 124.279C209.41 124.745 208.927 124.538 209.303 123.244C209.464 122.674 209.142 122.001 208.606 121.587C208.07 121.173 205.603 118.896 203.137 116.567C198.848 112.426 196.114 108.338 196.865 107.147C197.025 106.837 196.972 106.63 196.704 106.63C196.436 106.63 195.846 105.284 195.363 103.576ZM217.077 103.731C217.988 102.903 217.934 102.8 216.112 101.454C214.244 100.115 213.917 100.108 206.253 99.9553L206.14 99.953L198.098 99.8495L198.366 102.593C198.527 104.094 198.687 105.387 198.741 105.439C198.848 105.543 198.902 105.802 198.955 106.009C198.955 106.216 199.974 108.027 201.154 109.942C203.244 113.41 206.837 116.981 208.177 116.981C209.195 116.981 209.678 115.946 208.981 115.273C207.855 114.186 208.338 113.358 210.053 113.358C212.359 113.358 211.822 112.426 208.445 110.511C205.175 108.648 200.617 104.922 199.813 103.472C199.277 102.541 199.384 102.489 201.422 102.8C205.55 103.421 208.659 103.214 209.732 102.179C210.482 101.402 210.697 101.506 212.251 102.955C214.181 104.766 215.629 104.973 217.077 103.731ZM253.48 106.112C251.174 106.112 249.137 104.922 249.137 103.576C249.137 102.075 247.797 101.247 246.992 102.23C246.617 102.644 245.491 103.007 244.473 103.007C243.454 103.007 242.006 103.317 241.202 103.731C238.843 104.87 235.198 105.129 231.606 104.404C228.335 103.731 226.244 104.042 226.888 105.129C227.102 105.387 226.78 105.646 226.244 105.698C225.708 105.698 225.011 105.802 224.636 105.802C223.939 105.853 222.384 107.147 223.028 107.147C223.242 107.147 223.188 107.613 222.867 108.234C222.491 108.803 222.116 109.942 222.009 110.667C221.848 111.443 221.58 112.271 221.312 112.582C221.097 112.84 220.615 114.031 220.24 115.118C219.596 116.878 219.65 117.24 220.293 117.706C221.205 118.378 221.848 119.879 221.366 120.293C221.205 120.5 220.99 121.018 220.937 121.536C220.883 122.001 220.669 123.088 220.454 123.968C219.543 127.798 219.543 128.264 220.669 129.351C221.312 129.972 221.794 130.593 221.794 130.8C221.794 130.955 223.188 133.026 224.958 135.303C227.477 138.667 229.89 142.756 229.783 143.532C229.783 143.584 229.997 144.309 230.319 145.085C230.641 145.913 230.909 146.741 230.909 146.948C230.909 148.087 234.447 150.623 235.948 150.623C237.396 150.675 237.503 150.727 236.752 151.296C235.68 152.072 236.109 153.314 238.254 155.695C239.755 157.351 239.755 157.351 241.899 156.627C243.347 156.109 245.17 155.954 247.368 156.161C250.584 156.472 250.745 156.42 251.335 155.074C251.871 153.987 251.818 153.159 251.067 150.727C250.531 149.122 250.102 147.414 249.995 147C249.941 146.534 249.727 145.913 249.512 145.603C249.298 145.24 249.244 144.05 249.459 142.911C249.78 140.944 249.673 140.789 247.636 139.392C245.277 137.839 245.116 137.166 246.832 136.39C248.279 135.769 249.137 134.009 249.137 131.732C249.137 130.748 249.405 129.403 249.727 128.73C250.263 127.591 250.477 127.539 251.871 128.005C253.748 128.73 255.088 127.695 257.018 123.968C257.769 122.519 258.841 120.811 259.323 120.086C260.128 119 260.181 118.637 259.591 117.861C258.948 117.033 258.841 117.136 257.876 118.896C256.75 120.915 253.855 122.985 252.89 122.416C251.764 121.743 252.407 120.138 254.82 117.55C256.16 116.101 257.715 114.911 258.251 114.911C259.913 114.911 260.074 113.876 258.573 112.375C257.822 111.598 256.804 109.89 256.321 108.545C255.517 106.216 255.356 106.112 253.48 106.112ZM263.076 106.681C263.72 107.82 265.221 108.027 265.221 106.992C265.221 106.578 264.631 106.009 263.88 105.698C262.379 105.025 262.272 105.18 263.076 106.681ZM276.533 109.942C277.069 108.752 277.552 107.199 277.552 106.423C277.552 104.766 277.176 104.766 275.139 106.371C272.673 108.338 265.864 111.443 264.685 111.132C263.505 110.822 262.808 112.426 262.326 116.463C261.736 120.863 261.575 121.587 260.717 122.778C260.235 123.399 259.859 124.331 259.859 124.848C259.859 125.366 259.645 125.78 259.431 125.78C259.216 125.78 259.002 126.297 258.948 126.918C258.841 128.109 260.128 129.92 261.093 129.92C262.004 129.92 268.062 125.469 270.046 123.399C272.726 120.552 273.477 119.258 274.549 115.428C275.085 113.565 275.997 111.132 276.533 109.942ZM212.895 108.027C213.324 107.302 213.324 106.992 212.68 106.63C211.662 106.009 207.855 105.957 207.855 106.578C207.855 107.354 210.643 109.269 211.501 109.114C211.93 109.01 212.573 108.545 212.895 108.027ZM149.417 116.981C149.846 116.049 149.846 115.273 149.471 114.238C149.149 113.462 148.667 112.84 148.399 112.84C147.648 112.84 147.434 116.463 148.131 117.395C148.72 118.171 148.828 118.12 149.417 116.981ZM79.6673 122.985C80.257 122.467 80.5787 121.691 80.4178 121.07C79.7745 118.844 78.3805 120.811 77.8444 124.693C77.6836 125.728 77.4691 127.332 77.3083 128.212C77.1475 129.144 76.933 130.697 76.7722 131.576C76.6649 132.508 76.3969 134.164 76.1824 135.199C76.0216 136.286 76.0752 137.166 76.3433 137.166C77.1475 137.166 78.0589 136.028 77.7908 135.406C77.63 135.044 77.898 133.854 78.3269 132.663C78.7558 131.525 79.0239 129.351 78.9703 127.902C78.8631 126.401 79.0239 125.262 79.3456 125.262C79.6136 125.262 79.6136 124.952 79.2383 124.589C78.8094 124.02 78.9167 123.658 79.6673 122.985ZM260.288 136.442C262.969 135.821 270.314 131.162 274.657 127.177L278.785 123.399L277.391 122.519C276.031 121.66 275.998 121.689 272.559 124.673L272.298 124.9C270.26 126.66 267.258 129.144 265.703 130.334C262.755 132.663 262.272 132.767 258.305 131.68C257.179 131.369 257.125 131.421 257.715 132.456C258.197 133.336 258.197 133.802 257.661 134.371C256.643 135.614 258.251 136.856 260.288 136.442ZM154.832 128.989L153.385 127.384C152.634 126.504 151.83 125.78 151.669 125.78C151.079 125.78 151.24 131.991 151.83 132.042C152.152 132.042 152.902 131.369 153.599 130.541L154.832 128.989ZM103.471 129.403C103.954 129.403 104.383 129.196 104.383 128.937C104.383 128.109 98.4853 128.057 96.5016 128.833C94.1963 129.713 95.1613 130.593 97.8956 130.127C99.075 129.868 99.8256 130.024 100.094 130.49C100.469 131.059 100.737 131.007 101.595 130.283C102.131 129.817 102.989 129.403 103.471 129.403ZM73.0193 136.131C74.0915 135.251 74.6277 132.146 73.9307 130.697C73.2873 129.403 71.5181 128.212 70.9284 128.73C70.3386 129.299 70.6067 130.955 71.4645 132.249C71.8934 132.922 72.2151 133.75 72.1615 134.164C72.1079 134.527 72.1079 135.251 72.1615 135.821C72.2151 136.597 72.3759 136.649 73.0193 136.131ZM179.977 140.686C179.977 138.667 179.655 137.736 178.583 136.442C176.545 134.164 175.634 133.699 175.902 135.199C176.063 135.872 176.17 136.39 176.224 136.39C176.385 136.39 177.189 140.065 177.564 142.342C177.671 143.066 177.886 144.93 178.1 146.482C178.583 150.519 179.387 153.211 180.245 153.521C181.531 154.039 181.96 156.265 181.37 159.784C181.21 160.716 181.317 161.595 181.531 161.751C181.799 161.854 181.907 165.115 181.799 168.945C181.692 173.241 181.799 176.036 182.121 176.243C182.443 176.45 182.55 176.76 182.443 176.967C182.282 177.174 183.086 178.365 184.212 179.555L186.303 181.781L187.214 180.487C187.911 179.452 187.965 178.779 187.59 177.33C187.268 176.346 187.214 175.415 187.375 175.259C187.536 175.104 187.375 174.949 187.053 174.949C186.732 174.949 186.196 175.415 185.874 175.984C185.177 177.226 183.944 177.33 183.515 176.191C182.979 174.845 183.14 173.034 184.051 170.498C185.07 167.599 185.177 162.372 184.319 159.784C183.783 158.231 183.783 157.662 184.319 157.041C184.855 156.368 184.694 156.006 183.301 154.764C181.746 153.418 181.585 152.952 181.639 150.52C181.639 149.019 181.317 146.741 180.834 145.499C180.352 144.257 179.977 142.083 179.977 140.686ZM95.0005 139.236C95.9655 140.013 97.0914 136.959 96.2872 135.562C95.5902 134.32 95.2149 134.32 94.8932 135.614C94.7324 136.183 94.4107 136.649 94.1963 136.649C93.5529 136.649 94.1963 138.564 95.0005 139.236ZM62.1895 137.114C62.4576 136.907 62.5648 136.39 62.404 135.924C61.707 134.216 60.045 135.044 59.6697 137.27C59.6161 137.632 59.4017 138.201 59.1872 138.512C58.9728 138.874 58.7047 140.065 58.5439 141.255C58.3294 142.859 58.4366 143.377 59.0264 143.377C59.7769 143.377 60.6348 141.721 61.2781 138.978C61.4926 138.098 61.9215 137.27 62.1895 137.114ZM174.508 139.909C174.026 139.392 173.489 138.201 173.275 137.27C172.953 135.872 172.096 134.992 171.881 135.872C171.613 136.907 171.72 137.58 172.364 138.564C173.489 140.323 173.007 142.135 171.506 141.928C170.541 141.773 170.326 141.98 170.434 142.652C170.541 143.325 170.058 143.739 168.772 144.102C167.056 144.567 166.841 144.464 165.501 142.963L164.054 141.307L163.464 142.549C162.928 143.688 162.713 144.671 162.07 148.708C161.909 149.536 161.534 150.519 161.159 150.934C159.657 152.642 161.212 151.917 164 149.536C165.662 148.139 168.503 146.224 170.38 145.292C174.401 143.325 175.848 141.41 174.508 139.909ZM224.797 142.859C225.815 142.859 225.815 142.859 223.349 139.288C221.044 135.976 220.722 135.665 220.722 136.907C220.722 138.098 223.939 142.859 224.797 142.859ZM75.1638 140.272C75.6463 141.048 76.5041 140.893 76.5041 140.065C76.5041 139.651 76.2897 139.185 76.0216 138.978C75.3782 138.615 74.7349 139.599 75.1638 140.272ZM292.027 152.538C291.973 150.675 290.097 147.155 288.596 146.224C286.934 145.137 282.913 144.93 282.538 145.861C282.109 146.793 282.162 159.473 282.538 160.923C282.752 161.544 283.663 163.303 284.629 164.753C285.594 166.254 286.398 167.651 286.451 167.962C286.505 169.152 287.416 171.222 289.132 173.965C290.151 175.57 290.955 177.174 290.955 177.537C290.955 177.847 291.437 178.831 292.081 179.659L293.207 181.16L294.761 179.917C295.565 179.245 297.12 178.365 298.193 178.054C300.23 177.433 300.391 177.019 299.479 175.363C299.158 174.793 298.889 173.5 298.889 172.464C298.889 171.481 298.3 168.79 297.603 166.512C296.906 164.235 296.316 161.802 296.316 161.13C296.316 159.68 295.029 157.144 293.314 155.126C292.617 154.298 292.027 153.159 292.027 152.538ZM133.226 152.952C135.585 149.226 137.086 146.689 137.086 146.431C137.086 146.017 135.103 145.447 134.781 145.758C134.674 145.913 133.762 146.12 132.744 146.224C130.385 146.534 129.581 146.741 128.24 147.155C127.651 147.311 125.989 147.621 124.487 147.828C118.751 148.553 117.25 148.812 113.229 149.898C111.46 150.364 109.798 150.778 109.476 150.882C109.208 150.934 108.564 151.141 108.136 151.296C107.707 151.503 106.742 151.71 105.991 151.865C105.24 151.969 104.275 152.227 103.847 152.383C102.882 152.693 101.22 153.056 95.9119 154.039C92.3735 154.66 84.8677 154.764 74.0915 154.246C72.644 154.194 70.7675 154.401 70.017 154.764C68.9447 155.229 68.3014 155.229 67.4972 154.815C66.693 154.401 65.9424 154.453 64.4413 155.074C62.7793 155.747 59.5089 155.902 46.2666 155.954C37.4205 156.006 27.9846 155.902 25.304 155.643C22.677 155.436 17.8518 155.126 14.6887 154.971L8.89852 154.66L10.1316 156.937C10.8286 158.128 12.7586 161.181 14.4206 163.614C16.0826 166.098 19.5138 171.429 22.0872 175.518C24.6606 179.607 27.8774 184.576 29.3249 186.594C30.7189 188.561 32.5417 191.459 33.3459 193.012C34.0965 194.513 35.2223 196.273 35.8121 196.842C36.3482 197.463 36.8307 198.084 36.8307 198.343C36.8307 198.964 39.6722 201.552 40.5836 201.811C41.0125 201.914 42.1384 202.173 42.9962 202.432C44.6582 202.949 74.0915 202.742 76.5041 202.225C77.2547 202.069 79.56 201.811 81.5973 201.604C88.6206 201.034 90.1753 200.724 93.124 199.43C94.7324 198.757 96.6625 197.929 97.413 197.618C103.525 195.186 109.101 190.993 111.996 186.698C113.014 185.197 115.534 181.315 117.518 178.054C119.555 174.793 121.7 171.378 122.343 170.549C122.986 169.67 124.434 167.496 125.506 165.633C126.578 163.769 127.758 161.802 128.133 161.233C128.508 160.716 129.634 158.852 130.653 157.093C131.672 155.385 132.851 153.521 133.226 152.952ZM173.811 151.865C174.24 151.192 174.454 150.312 174.294 149.898C174.133 149.433 173.704 149.07 173.329 149.07C172.685 149.07 134.567 178.261 126.417 185.041C120.466 189.958 119.77 190.735 120.681 191.511C121.217 191.925 123.951 190.062 132.369 183.644C138.373 178.986 143.949 174.742 144.807 174.172C145.611 173.603 146.576 172.878 146.951 172.62C147.273 172.309 148.506 171.378 149.685 170.549C150.865 169.67 152.312 168.583 152.902 168.013C153.492 167.496 154.564 166.719 155.315 166.254C156.655 165.425 160.73 162.475 161.212 162.01C162.392 160.871 168.182 156.316 168.45 156.316C169.093 156.316 173.007 153.056 173.811 151.865ZM257.072 160.871C258.68 160.56 257.929 156.679 255.785 153.832C255.034 152.952 254.016 152.176 253.533 152.176C252.997 152.176 252.836 152.331 253.211 152.59C254.23 153.263 256.107 157.662 256.107 159.37C256.107 160.716 256.321 161.026 257.072 160.871ZM156.601 153.884C156.816 153.728 156.709 153.418 156.333 153.159C155.529 152.642 153.706 152.538 153.706 152.952C153.706 153.418 156.065 154.142 156.601 153.884ZM238.629 162.786C239.433 161.595 239.379 161.44 237.289 159.059C234.554 156.006 234.233 155.902 233.804 157.558C233.643 158.335 233.107 159.111 232.678 159.37C231.981 159.732 232.088 160.043 233.375 161.337C234.769 162.734 236.806 164.08 237.503 164.08C237.664 164.08 238.146 163.51 238.629 162.786ZM250.156 162.32C250.584 161.647 250.745 160.664 250.584 160.25C250.209 159.318 249.566 159.215 248.815 159.939C248.494 160.25 247.529 160.612 246.671 160.767C244.741 161.13 244.794 161.078 245.598 162.113C245.974 162.631 246.992 163.2 247.85 163.355C249.191 163.614 249.566 163.407 250.156 162.32ZM137.515 162.01C137.783 162.01 138.32 161.647 138.695 161.233C139.07 160.819 139.124 160.457 138.802 160.457C138.534 160.457 137.998 160.819 137.623 161.233C137.247 161.647 137.194 162.01 137.515 162.01ZM139.231 164.856C139.553 164.701 139.66 164.287 139.499 164.028C139.07 163.407 137.783 163.407 137.354 164.08C136.926 164.701 138.427 165.322 139.231 164.856ZM132.529 169.255C133.119 168.79 133.173 168.376 132.744 167.651C131.832 165.943 130.117 166.616 129.795 168.738C129.473 171.067 128.937 172.206 127.865 173.034C124.809 175.415 124.219 176.036 124.219 177.019C124.219 178.365 126.042 178.365 127.811 177.019C128.562 176.45 129.741 175.984 130.438 175.984C131.403 175.984 131.725 175.673 131.725 174.897C131.725 174.069 131.94 173.914 132.797 174.172C133.548 174.431 134.459 174.069 135.693 173.034C136.711 172.257 138.105 171.222 138.802 170.756C139.499 170.291 140.518 169.152 141.054 168.22C142.18 166.305 141.804 166.409 138.534 168.893C136.443 170.446 132.637 171.326 132.047 170.394C131.886 170.135 132.1 169.618 132.529 169.255ZM248.708 170.291C248.547 169.152 248.065 168.531 247.153 168.169C244.365 167.185 242.864 167.651 243.186 169.463C243.615 171.533 243.508 174.069 242.864 176.243C242.435 177.64 242.006 179.503 241.899 180.331C241.792 181.108 241.524 182.246 241.363 182.764C240.505 185.248 240.666 188.768 241.631 191.356C242.435 193.374 242.596 194.979 242.435 198.343C242.328 200.672 242.06 203.312 241.846 204.191C241.631 205.02 241.47 206.313 241.524 207.038C241.524 207.763 241.256 208.642 240.988 209.005C240.559 209.471 240.559 209.833 240.988 210.247C241.685 210.92 242.703 210.35 242.703 209.315C242.703 208.332 243.722 208.384 244.955 209.419C245.706 210.143 245.92 210.143 246.135 209.574C246.349 208.953 246.885 201.034 246.992 197.359C246.992 196.738 247.26 196.066 247.529 195.91C247.85 195.703 247.957 195.393 247.797 195.134C247.689 194.927 247.85 193.685 248.279 192.443C248.654 191.2 248.869 189.13 248.762 187.888C248.279 182.35 248.172 172.361 248.547 172.154C248.762 171.999 248.869 171.17 248.708 170.291ZM301.463 175.001C302.374 176.708 303.071 176.708 302.535 175.052C302.321 174.483 301.838 173.862 301.409 173.707C300.712 173.448 300.712 173.655 301.463 175.001ZM286.88 177.537C287.309 182.195 289.4 185.973 289.775 182.712C289.829 181.988 289.186 180.021 288.274 178.313L286.719 175.208L286.88 177.537ZM209.464 205.485C210.16 205.123 210.536 204.502 210.429 203.829C210.16 202.121 209.249 202.225 208.499 204.036C207.748 206.003 207.909 206.262 209.464 205.485ZM90.2826 205.123C90.8723 205.485 93.6602 204.761 93.6602 204.191C93.6602 203.881 93.5529 203.933 91.2476 204.398C90.2826 204.605 89.9073 204.864 90.2826 205.123ZM216.594 208.384C217.077 207.866 217.505 207.297 217.505 207.038C217.505 206.831 217.023 206.106 216.487 205.434L215.468 204.191L215.093 205.641C214.878 206.469 214.932 207.607 215.2 208.177C215.629 209.16 215.736 209.212 216.594 208.384ZM82.4015 207.607C82.4015 207.297 83.5274 206.779 84.9749 206.365L87.4947 205.641L85.4574 205.692C84.3316 205.692 83.3129 205.796 83.2593 205.899C83.1521 205.951 81.7045 206.106 80.0425 206.262C76.6649 206.52 75.8071 206.831 76.236 207.607C76.6649 208.228 82.4015 208.228 82.4015 207.607ZM96.0191 222.099C98.2172 219.511 98.1636 219.615 98.6998 212.058C98.9142 208.384 98.4853 207.866 96.2336 209.16C95.6974 209.419 95.2685 209.522 95.2685 209.315C95.2685 209.16 94.9469 209.212 94.5716 209.522C93.124 210.713 87.5483 211.489 75.6999 212.214C70.0706 212.524 64.9238 213.094 64.1732 213.404C63.2618 213.818 62.7256 214.595 62.5112 215.837C62.0823 218.166 61.5998 220.443 61.1709 222.048C60.6884 223.911 60.7956 225.205 61.4926 225.878C61.9215 226.292 66.5858 226.395 76.5577 226.343C92.9096 226.188 92.4271 226.292 96.0191 222.099ZM53.7723 224.842C54.3621 224.118 54.5229 222.565 54.4157 218.632C54.3085 214.646 54.0404 213.197 53.397 212.524C52.1639 211.282 52.0567 211.903 51.9495 219.046C51.8423 225.256 52.2712 226.654 53.7723 224.842ZM244.794 222.772C245.223 223.031 246.403 221.996 247.153 220.702C247.368 220.391 246.939 219.615 246.242 218.994C245.116 218.01 244.955 217.959 244.633 218.683C244.151 219.926 244.258 222.462 244.794 222.772Z" fill="#2B7C3D"/>
<path d="M144.217 148.346C143.842 149.329 144.807 150.364 145.611 149.898C146.469 149.381 146.308 148.19 145.396 147.828C144.914 147.673 144.431 147.88 144.217 148.346Z" fill="#2B7C3D"/>
<path d="M201.207 123.295C201.046 123.968 200.885 124.9 200.885 125.366C200.885 126.142 201.046 126.142 202.547 125.417C203.727 124.848 204.102 124.33 203.995 123.502C203.78 121.898 201.636 121.743 201.207 123.295Z" fill="#2B7C3D"/>
<path d="M211.984 138.564C211.287 139.185 211.608 139.547 212.949 139.651C213.806 139.702 214.289 139.495 214.289 138.978C214.289 138.201 212.627 137.891 211.984 138.564Z" fill="#2B7C3D"/>
<path d="M210.214 142.652C210.375 143.118 210.536 143.532 210.536 143.688C210.536 143.791 210.857 143.739 211.286 143.584C212.251 143.222 211.769 141.824 210.696 141.824C210.16 141.824 210 142.135 210.214 142.652Z" fill="#2B7C3D"/>
<path d="M207.748 145.292C206.408 145.603 206.461 148.035 207.801 148.035C208.82 148.035 209.463 147.104 209.463 145.654C209.463 144.93 209.356 144.878 207.748 145.292Z" fill="#2B7C3D"/>
<path d="M231.445 108.648C231.445 109.58 235.359 112.219 237.664 112.841C238.951 113.203 240.291 113.824 240.613 114.186C241.524 115.273 242.972 115.066 244.097 113.617C244.687 112.841 245.438 112.426 245.974 112.582C247.261 112.996 249.78 110.874 249.566 109.528C249.459 108.752 249.083 108.493 248.333 108.596C245.223 109.062 244.312 109.425 243.508 110.253C242.811 111.029 242.275 111.081 240.398 110.667C239.165 110.408 237.396 109.735 236.484 109.166C234.769 108.131 231.445 107.82 231.445 108.648Z" fill="#2B7C3D"/>
<path d="M251.817 115.325C250.96 115.584 250.209 116.412 250.209 117.085C250.209 117.809 252.407 117.499 252.675 116.722C253.104 115.635 252.729 115.014 251.817 115.325Z" fill="#2B7C3D"/>
<path d="M224.314 118.378C224.1 118.534 223.939 119.258 223.939 119.983C223.939 121.846 226.834 124.227 229.086 124.227C231.606 124.227 231.445 123.192 228.55 120.345C226.244 118.12 225.118 117.602 224.314 118.378Z" fill="#2B7C3D"/>
<path d="M230.855 132.612C229.944 134.268 230.105 139.65 231.23 142.859C232.035 145.137 232.517 145.758 233.536 145.861C234.93 146.068 235.948 145.033 235.251 144.153C234.715 143.532 234.179 140.686 233.804 136.131C233.429 131.68 232.195 130.179 230.855 132.612Z" fill="#2B7C3D"/>
<path d="M130.224 171.947C129.259 172.878 129.42 173.862 130.546 173.707C131.028 173.603 131.511 173.034 131.618 172.464C131.832 171.222 131.189 171.015 130.224 171.947Z" fill="#2B7C3D"/>
<path d="M243.99 185.093C242.811 186.749 242.811 190.062 243.936 191.718C245.652 194.202 247.475 192.029 246.671 188.509C246.456 187.422 246.349 186.387 246.403 186.128C246.563 185.404 245.867 183.747 245.384 183.747C245.116 183.747 244.473 184.369 243.99 185.093Z" fill="#2B7C3D"/>
<path d="M311.167 51.612C310.684 51.7156 309.773 52.6989 309.237 53.7341C307.843 56.3737 301.784 64.189 301.141 64.189C300.337 64.189 300.498 66.104 301.356 66.4145C302.589 66.8803 310.791 57.7711 310.791 56.0114C310.791 55.7008 311.006 55.3903 311.328 55.2868C311.596 55.1833 311.917 54.2516 312.078 53.1647C312.185 52.1296 312.293 51.3015 312.239 51.3015C312.185 51.3533 311.703 51.4568 311.167 51.612Z" fill="#2B7C3D"/>
<path d="M335.614 87.8419C334.649 88.2042 334.756 89.5499 335.936 91.4131C336.472 92.2412 337.33 94.5703 337.866 96.5888C338.349 98.5556 339.206 100.626 339.742 101.195C341.029 102.489 342.316 105.491 342.745 107.924C343.013 109.58 342.745 109.994 340.225 112.582C338.724 114.134 337.115 115.428 336.74 115.428C335.4 115.428 335.936 116.878 337.652 118.068C339.528 119.362 341.994 123.968 341.673 125.521C341.565 126.09 341.136 127.229 340.815 128.109C340.439 128.937 340.064 130.231 340.011 130.955C339.903 131.68 339.689 132.767 339.582 133.336C339.421 133.957 339.153 136.183 338.992 138.253C338.509 143.895 338.08 146.638 337.491 147.673C337.223 148.139 337.169 148.76 337.33 149.019C337.491 149.277 337.33 149.588 337.008 149.691C335.99 150.002 335.775 154.919 336.687 156.679C337.169 157.558 337.437 158.335 337.33 158.49C337.169 158.594 337.008 160.198 336.955 162.061C336.847 165.115 336.901 165.374 337.866 165.218C339.528 164.908 341.351 163.045 341.083 161.803C340.976 161.181 340.868 160.716 340.815 160.716C340.761 160.716 340.654 160.146 340.493 159.473C340.386 158.749 340.064 157.973 339.796 157.662C338.724 156.265 338.724 154.35 339.903 152.176C341.19 149.64 342.423 148.915 342.423 150.571C342.423 153.004 345.372 151.037 345.854 148.294C346.283 146.068 346.605 144.878 347.195 142.963C347.463 142.083 347.57 141.307 347.409 141.307C347.248 141.307 347.409 140.944 347.784 140.53C348.16 140.116 348.267 139.754 348.052 139.754C347.838 139.754 347.892 139.444 348.213 139.081C348.535 138.771 348.803 138.305 348.803 138.046C348.803 137.839 349.232 136.907 349.714 135.976C350.465 134.682 350.626 132.767 350.679 126.711C350.733 119.465 350.679 119.051 349.554 118.016C348.857 117.447 348.267 116.774 348.267 116.567C348.213 116.36 348.106 115.739 348.052 115.17C347.892 113.462 346.605 110.097 345.693 108.752C345.265 108.027 344.836 106.63 344.782 105.646C344.728 104.611 343.817 101.92 342.691 99.6425C341.565 97.3652 340.6 95.2431 340.493 94.9844C340.439 94.6738 339.796 93.1729 339.099 91.6202C337.705 88.5665 336.687 87.4796 335.614 87.8419ZM348.428 127.177C348.052 127.954 347.731 129.144 347.624 129.817C347.409 131.214 346.873 131.732 345.211 132.249C344.085 132.56 344.031 132.456 344.246 131.111C344.353 130.334 344.514 129.506 344.514 129.351C344.568 129.144 345.265 128.212 346.176 127.281C347.034 126.297 347.784 125.314 347.784 125.003C347.784 124.745 348.052 124.796 348.374 125.107C348.857 125.573 348.857 126.09 348.428 127.177ZM346.712 136.442C346.712 137.684 344.621 141.41 343.495 142.083C342.53 142.652 342.906 140.168 344.3 137.322C345.693 134.527 346.712 134.113 346.712 136.442Z" fill="#2B7C3D"/>
<path d="M323.82 88.877C321.675 89.1358 321.353 89.9639 322.372 93.1211C323.283 96.0712 326.178 99.3837 327.894 99.3837C329.395 99.3837 329.342 98.1933 327.733 96.6406C326.178 95.1396 325.213 92.0859 325.642 90.0157C325.803 89.1876 325.857 88.5665 325.75 88.6182C325.642 88.6182 324.785 88.7735 323.82 88.877Z" fill="#2B7C3D"/>
<path d="M321.782 97.3134C322.211 97.9862 320.067 102.023 318.619 103.265C317.922 103.835 315.617 105.698 313.419 107.406C311.274 109.062 309.13 110.822 308.647 111.288C306.181 113.617 302.053 116.567 300.766 116.981C292.778 119.362 287.202 122.674 287.202 125.055C287.202 126.453 288.757 126.918 290.741 126.038C292.778 125.159 294.279 124.641 295.137 124.434C295.512 124.382 297.335 123.399 299.158 122.312C302.535 120.242 302.535 120.242 303.393 121.329C303.876 121.95 305.109 122.881 306.235 123.451L308.218 124.434L310.47 123.244C311.757 122.623 314.545 120.552 316.636 118.689C318.78 116.826 320.603 115.428 320.764 115.532C321.246 116.049 315.295 122.157 311.918 124.641C309.719 126.246 309.827 127.125 312.293 127.539C315.885 128.161 315.939 128.264 315.724 130.076C315.563 131.525 315.885 132.249 317.708 134.268C319.37 136.131 319.906 137.166 319.959 138.615C320.013 139.651 320.12 141.824 320.228 143.377C320.388 144.93 320.442 146.741 320.442 147.414C320.442 148.553 321.729 149.536 322.426 148.863C322.801 148.553 322.64 137.529 322.265 134.578C321.514 128.678 321.461 127.436 322.211 126.763C322.587 126.349 322.855 125.366 322.747 124.538C322.587 123.554 322.908 122.674 323.659 121.898C324.677 120.863 325.428 119 326.125 115.739C326.286 115.17 326.5 112.685 326.661 110.253C327.036 104.404 326.983 104.559 327.519 104.559C328.162 104.559 328.913 106.578 329.288 109.269C330.039 114.859 330.253 115.739 330.95 116.826C331.915 118.275 333.309 118.378 333.309 116.981C333.309 115.118 332.13 108.441 331.54 107.147C331.218 106.423 330.896 105.284 330.789 104.559C330.682 103.835 329.985 102.748 329.288 102.127C327.733 100.678 325.267 100.005 325.214 100.988C325.16 101.402 325.106 102.075 325.053 102.489C325.053 102.903 324.463 103.317 323.766 103.421C322.694 103.576 322.64 103.472 323.123 102.282C323.391 101.557 323.498 100.936 323.337 100.936C323.23 100.936 323.337 100.522 323.605 100.005C323.98 99.2802 323.927 98.7108 323.337 97.9345C322.533 96.8476 321.139 96.2783 321.782 97.3134Z" fill="#2B7C3D"/>
<path d="M300.283 106.785C299.64 107.406 298.246 108.234 297.12 108.648C294.386 109.58 290.418 112.219 290.418 113.099C290.418 113.513 290.901 114.083 291.544 114.393C292.456 114.911 293.099 114.704 295.565 113.151C297.12 112.116 298.621 111.288 298.889 111.288C299.693 111.288 303.285 107.354 303.285 106.474C303.285 105.232 301.624 105.387 300.283 106.785Z" fill="#2B7C3D"/>
<path d="M125.292 131.369C125.292 132.198 128.133 133.543 129.795 133.543C130.492 133.543 131.511 133.905 131.939 134.371C132.422 134.785 133.441 135.251 134.191 135.406C136.604 135.82 135.478 133.957 132.529 132.56C129.527 131.162 125.292 130.49 125.292 131.369Z" fill="#2B7C3D"/>
<path d="M19.1387 137.477C19.1387 137.994 19.514 138.201 20.3182 138.098C22.0338 137.839 22.1946 136.649 20.5326 136.649C19.6212 136.649 19.1387 136.907 19.1387 137.477Z" fill="#2B7C3D"/>
<path d="M12.0619 139.236C10.936 139.754 9.05958 140.323 7.8801 140.53C6.70062 140.737 5.57475 141.1 5.41391 141.359C5.25308 141.669 4.5025 142.083 3.80553 142.342C2.03632 143.015 2.19715 144.102 4.23443 145.551C7.02229 147.466 8.57706 148.139 10.6143 148.397C13.0805 148.708 13.4022 148.19 12.3299 146.017C11.2041 143.843 11.901 141.824 14.0456 140.841C15.8148 140.065 16.5117 139.236 16.1364 138.615C15.7075 137.943 14.2064 138.15 12.0619 139.236ZM8.95235 142.756C8.95235 143.429 8.309 143.895 7.77287 143.584C7.23674 143.274 7.71926 142.342 8.46984 142.342C8.7379 142.342 8.95235 142.549 8.95235 142.756Z" fill="#2B7C3D"/>
<path d="M13.7773 147.725C13.7773 148.294 16.9405 149.588 18.3344 149.588C19.6747 149.588 20.3181 148.242 19.0314 148.19C18.6561 148.139 17.3158 147.983 16.0827 147.776C14.796 147.569 13.7773 147.569 13.7773 147.725Z" fill="#2B7C3D"/>
<path d="M319.691 155.229C318.297 156.679 317.761 159.163 318.244 162.01C318.887 165.84 317.332 168.22 313.097 170.084C312.132 170.498 311.113 171.274 310.791 171.792C310.363 172.62 310.577 172.93 312.132 173.862C313.15 174.431 314.008 175.156 314.008 175.466C314.008 175.725 313.15 176.864 312.132 178.002C310.041 180.228 309.826 181.056 311.22 181.522C311.703 181.677 313.15 182.764 314.383 183.903C316.421 185.818 316.796 185.921 318.029 185.404C318.78 185.093 319.423 184.369 319.423 183.903C319.691 180.228 321.675 175.363 323.873 173.034C327.358 169.307 327.411 168.324 324.838 160.871C323.927 158.128 323.122 155.488 323.122 155.074C323.122 153.935 320.817 154.039 319.691 155.229ZM323.122 164.494C323.98 167.548 323.766 168.531 321.782 171.015C320.763 172.361 319.906 173.655 319.906 173.914C319.906 174.224 319.316 174.431 318.565 174.431C316.742 174.431 316.85 173.293 318.994 170.705C320.603 168.738 320.71 168.376 320.71 164.494C320.71 160.56 320.763 160.457 321.621 161.492C322.157 162.113 322.801 163.459 323.122 164.494Z" fill="#2B7C3D"/>
<path d="M343.71 155.902C343.817 156.575 344.192 157.714 344.46 158.438C344.782 159.215 344.889 159.939 344.728 160.095C344.567 160.25 344.675 161.078 344.996 161.958C345.801 164.183 344.407 165.633 341.458 165.633C338.938 165.633 338.295 166.202 339.635 167.289C340.868 168.376 343.066 168.79 345.104 168.376C346.39 168.169 347.034 167.651 347.57 166.305C347.999 165.322 348.213 164.339 348.052 164.132C347.945 163.873 347.677 162.579 347.516 161.181C347.141 157.714 345.747 154.764 344.46 154.764C343.71 154.764 343.549 155.074 343.71 155.902Z" fill="#2B7C3D"/>
<path d="M152.741 175.725C152.795 176.243 153.438 176.967 154.082 177.381C155.154 178.106 155.315 178.106 155.637 177.278C156.065 176.294 155.529 175.725 153.814 175.208C152.795 174.897 152.581 175.001 152.741 175.725Z" fill="#2B7C3D"/>
<path d="M218.578 181.936C219.757 183.282 223.939 185.818 225.011 185.818C225.547 185.818 226.137 186.025 226.298 186.284C226.78 186.956 231.445 187.94 232.57 187.629C234.34 187.06 233.482 186.284 229.836 185.041C227.906 184.369 224.689 183.282 222.599 182.505C218.202 180.953 217.666 180.901 218.578 181.936Z" fill="#2B7C3D"/>
<path d="M169.254 182.454C169.254 183.23 171.077 185.3 171.72 185.3C172.846 185.3 172.632 183.333 171.452 182.712C170.326 182.143 169.254 182.039 169.254 182.454Z" fill="#2B7C3D"/>
<path d="M161.748 185.145C161.748 185.404 162.445 186.284 163.303 187.06C164.536 188.199 165.233 188.457 166.252 188.199C167.914 187.784 167.967 187.319 166.627 186.128C165.501 185.145 161.748 184.368 161.748 185.145Z" fill="#2B7C3D"/>
<path d="M185.659 195.807C185.981 196.738 188.501 198.498 190.002 198.964C190.645 199.171 192.629 200.724 194.345 202.432C197.669 205.641 198.741 206.158 198.741 204.45C198.741 203.312 194.988 199.482 193.272 198.964C192.629 198.809 191.61 198.188 191.021 197.618C189.948 196.635 186.785 195.134 185.82 195.134C185.552 195.134 185.498 195.445 185.659 195.807Z" fill="#2B7C3D"/>
<path d="M128.24 208.953C127.651 209.108 126.578 209.678 125.881 210.195C125.184 210.765 124.005 211.179 123.201 211.179C121.378 211.179 120.198 211.903 120.735 212.731C121.056 213.197 122.021 213.249 124.434 212.938C126.203 212.731 130.117 212.473 133.065 212.421C136.014 212.369 139.07 212.317 139.821 212.265C140.625 212.265 142.18 212.576 143.252 213.042C145.396 213.87 146.737 213.715 146.737 212.628C146.737 212.058 144.86 211.023 143.091 210.661C142.877 210.609 142.501 210.402 142.18 210.143C141.697 209.781 137.944 209.885 135.21 210.35C134.62 210.454 133.28 210.092 132.261 209.574C130.331 208.539 130.063 208.539 128.24 208.953Z" fill="#2B7C3D"/>
<path d="M152.098 212.162C152.098 213.094 153.652 214.129 154.886 213.973C155.529 213.922 156.655 213.818 157.352 213.818C158.156 213.766 158.531 213.456 158.531 212.731C158.531 211.8 158.156 211.696 155.314 211.696C153.545 211.696 152.098 211.903 152.098 212.162Z" fill="#2B7C3D"/>
<path d="M200.35 216.51C200.35 217.182 202.494 218.425 203.566 218.425C204.692 218.425 204.049 216.458 202.923 216.147C201.047 215.681 200.35 215.785 200.35 216.51Z" fill="#2B7C3D"/>
<path d="M333.47 216.354C332.505 216.561 331.379 216.975 331.057 217.286C330.682 217.545 328.966 218.062 327.304 218.425C325.588 218.735 324.087 219.201 323.927 219.46C323.766 219.718 322.479 220.288 321.031 220.754C317.332 221.892 316.85 222.669 318.297 224.635C319.262 225.981 319.316 226.24 318.619 226.499C318.19 226.654 317.547 226.654 317.225 226.447C316.903 226.24 316.689 226.757 316.689 227.689C316.689 229.759 316.099 229.708 314.33 227.482C313.526 226.499 312.4 225.671 311.81 225.671C310.416 225.671 310.523 226.085 312.4 228.931C313.311 230.277 314.008 231.674 314.008 231.985C314.008 232.295 314.276 233.331 314.652 234.262C315.724 237.161 314.866 237.575 308.057 237.575C304.894 237.575 302.16 237.782 301.999 238.04C301.302 239.076 303.983 240.111 308.379 240.473C309.558 240.525 311.274 240.784 312.185 240.939C313.579 241.146 314.33 240.887 316.474 239.231C317.922 238.092 319.369 237.316 319.745 237.419C320.549 237.678 324.463 235.763 325.857 234.417C326.446 233.848 326.768 233.124 326.554 232.813C326.125 232.192 328.055 232.399 331.003 233.331C332.344 233.745 333.041 233.693 334.327 233.02C337.437 231.364 340.868 228.155 341.726 226.136C342.155 225.049 342.745 224.118 343.013 224.118C343.817 224.118 344.621 222.099 344.299 220.909C343.924 219.511 338.616 216.147 336.579 216.044C335.829 215.992 334.381 216.095 333.47 216.354ZM334.381 224.532C334.381 224.791 333.952 225.412 333.362 225.878C332.558 226.602 332.344 226.602 332.076 226.033C331.915 225.619 332.076 224.998 332.397 224.687C333.094 224.014 334.381 223.911 334.381 224.532Z" fill="#2B7C3D"/>
<path d="M206.783 218.683C206.783 219.149 207.373 219.77 208.123 220.081C208.874 220.391 209.463 220.857 209.463 221.116C209.463 221.426 209.785 221.53 210.16 221.375C210.482 221.271 211.179 221.53 211.608 221.996C212.895 223.341 216.433 224.739 216.433 223.963C216.433 222.772 213.002 220.081 210.107 218.994C206.729 217.7 206.783 217.7 206.783 218.683Z" fill="#2B7C3D"/>
<path d="M103.15 227.586C102.935 227.741 102.774 228.31 102.774 228.776C102.774 229.656 102.989 229.656 108.028 229.345C109.208 229.294 109.422 228.362 108.404 227.637C107.707 227.12 103.632 227.12 103.15 227.586Z" fill="#2B7C3D"/>
<path d="M288.81 229.294C288.113 229.759 288.167 229.966 289.293 230.846C290.848 232.14 293.528 232.14 295.244 230.846C295.994 230.329 296.477 229.759 296.316 229.656C295.673 229.087 289.561 228.776 288.81 229.294Z" fill="#2B7C3D"/>
<path d="M26.2154 232.968C24.7679 233.486 25.1432 234.469 26.8052 234.469C27.9847 234.417 29.8611 233.382 29.8611 232.709C29.8611 232.244 27.663 232.399 26.2154 232.968Z" fill="#2B7C3D"/>
<path d="M39.5112 233.538C39.5112 235.297 42.9961 237.161 44.8725 236.384C47.5531 235.349 50.6091 235.142 53.9867 235.918C55.327 236.177 56.7745 236.436 57.2034 236.436C57.6323 236.436 60.1521 236.695 62.8327 237.005C65.6742 237.316 67.8187 237.368 68.1404 237.057C68.6765 236.539 68.194 234.935 67.5507 235.039C67.3362 235.09 66.9609 235.039 66.7465 234.987C66.0495 234.78 65.6206 234.676 62.94 234.262C61.4924 234.055 59.7768 233.745 59.1871 233.589C58.5437 233.486 53.8258 233.227 48.7862 233.072C40.7979 232.813 39.5112 232.865 39.5112 233.538Z" fill="#2B7C3D"/>
</svg>
