<svg width="23" height="16" viewBox="0 0 23 16" fill="none" xmlns="http://www.w3.org/2000/svg">
<g id="backArrow">
<path id="Vector" d="M1.01091 6.90127L1.01204 6.90013L7.52736 0.653805C8.01546 0.185871 8.80494 0.187613 9.29079 0.657889C9.77658 1.1281 9.77471 1.88865 9.28661 2.35665L4.91223 6.55033L21.2316 6.55033C21.9203 6.55033 22.4785 7.08812 22.4785 7.75155C22.4785 8.41498 21.9203 8.95276 21.2316 8.95276L4.91229 8.95276L9.28655 13.1464C9.77465 13.6144 9.77652 14.375 9.29073 14.8452C8.80487 15.3155 8.01533 15.3172 7.52729 14.8493L1.01198 8.60297L1.01085 8.60183C0.522502 8.13227 0.524061 7.36926 1.01091 6.90127Z" fill="black"/>
<path id="Vector_2" d="M1.01091 6.90127L1.01204 6.90013L7.52736 0.653805C8.01546 0.185871 8.80494 0.187613 9.29079 0.657889C9.77658 1.1281 9.77471 1.88865 9.28661 2.35665L4.91223 6.55033L21.2316 6.55033C21.9203 6.55033 22.4785 7.08812 22.4785 7.75155C22.4785 8.41498 21.9203 8.95276 21.2316 8.95276L4.91229 8.95276L9.28655 13.1464C9.77465 13.6144 9.77652 14.375 9.29073 14.8452C8.80487 15.3155 8.01533 15.3172 7.52729 14.8493L1.01198 8.60297L1.01085 8.60183C0.522502 8.13227 0.524061 7.36926 1.01091 6.90127Z" fill="black"/>
</g>
</svg>
