<svg width="17" height="16" viewBox="0 0 17 16" fill="none" xmlns="http://www.w3.org/2000/svg">
<g id="System Icons">
<path id="Vector" d="M2.5 4H3.83333H14.5" stroke="#F10D11" stroke-width="1.25" stroke-linecap="round" stroke-linejoin="round"/>
<path id="Vector_2" d="M13.1668 4.00001V13.3333C13.1668 13.687 13.0264 14.0261 12.7763 14.2762C12.5263 14.5262 12.1871 14.6667 11.8335 14.6667H5.16683C4.81321 14.6667 4.47407 14.5262 4.22402 14.2762C3.97397 14.0261 3.8335 13.687 3.8335 13.3333V4.00001M5.8335 4.00001V2.66668C5.8335 2.31305 5.97397 1.97392 6.22402 1.72387C6.47407 1.47382 6.81321 1.33334 7.16683 1.33334H9.8335C10.1871 1.33334 10.5263 1.47382 10.7763 1.72387C11.0264 1.97392 11.1668 2.31305 11.1668 2.66668V4.00001" stroke="#F10D11" stroke-width="1.25" stroke-linecap="round" stroke-linejoin="round"/>
<path id="Vector_3" d="M7.1665 7.33334V11.3333" stroke="#F10D11" stroke-width="1.25" stroke-linecap="round" stroke-linejoin="round"/>
<path id="Vector_4" d="M9.8335 7.33334V11.3333" stroke="#F10D11" stroke-width="1.25" stroke-linecap="round" stroke-linejoin="round"/>
</g>
</svg>
