<svg width="22" height="21" viewBox="0 0 22 21" fill="none" xmlns="http://www.w3.org/2000/svg">
<g id="Group">
<g id="Group_2">
<path id="Vector" d="M20.3262 0.873047C20.2127 0.873007 20.1009 0.897898 19.9994 0.945782L14.4662 3.55953L8.20945 0.93269C8.19922 0.928568 8.18754 0.927841 8.17659 0.923719C8.14844 0.913779 8.11964 0.905495 8.09042 0.898908C8.06137 0.891514 8.03185 0.885735 8.00208 0.881654C7.94278 0.877047 7.88318 0.877047 7.82393 0.881654C7.79415 0.885735 7.76463 0.891514 7.73558 0.898908C7.70636 0.905495 7.67757 0.913779 7.64942 0.923719C7.63846 0.927841 7.62678 0.928528 7.61656 0.93269L1.04506 3.69126C0.781263 3.8019 0.611285 4.04896 0.611328 4.32155V19.4936C0.611456 19.7269 0.736426 19.9444 0.943539 20.0716C1.1507 20.1989 1.41197 20.2186 1.63791 20.124L7.91296 17.4895L14.188 20.124C14.199 20.1281 14.2106 20.124 14.2216 20.1302C14.3984 20.2049 14.6013 20.2006 14.7743 20.1185C14.786 20.1137 14.7991 20.1185 14.8108 20.1109L20.6521 17.3523C20.8997 17.2355 21.056 16.9965 21.0559 16.7351V1.56302C21.0562 1.18213 20.7294 0.873209 20.3262 0.873047ZM7.18282 16.2868L2.07165 18.4323V4.76984L7.18282 2.62435V16.2868ZM13.7543 18.4323L8.64314 16.2868V2.62435L13.7543 4.7698V18.4323ZM19.5956 16.3089L15.2146 18.3778V4.74774L19.5956 2.67882V16.3089Z" fill="#868889"/>
</g>
</g>
</svg>
