<svg width="22" height="15" viewBox="0 0 22 15" fill="none" xmlns="http://www.w3.org/2000/svg">
<g id="Group">
<g id="Group_2">
<g id="Group_3">
<path id="Vector" d="M12.521 9.93429C13.1038 9.93429 13.5763 9.48807 13.5763 8.93764C13.5763 8.3872 13.1038 7.94098 12.521 7.94098C11.9383 7.94098 11.4658 8.3872 11.4658 8.93764C11.4658 9.48807 11.9383 9.93429 12.521 9.93429Z" fill="#868889"/>
<path id="Vector_2" d="M15.4761 9.93429C16.0589 9.93429 16.5314 9.48807 16.5314 8.93764C16.5314 8.3872 16.0589 7.94098 15.4761 7.94098C14.8933 7.94098 14.4209 8.3872 14.4209 8.93764C14.4209 9.48807 14.8933 9.93429 15.4761 9.93429Z" fill="#868889"/>
<path id="Vector_3" d="M9.56646 9.93429C10.1492 9.93429 10.6217 9.48807 10.6217 8.93764C10.6217 8.3872 10.1492 7.94098 9.56646 7.94098C8.98367 7.94098 8.51123 8.3872 8.51123 8.93764C8.51123 9.48807 8.98367 9.93429 9.56646 9.93429Z" fill="#868889"/>
<path id="Vector_4" d="M6.61187 9.93429C7.19465 9.93429 7.66709 9.48807 7.66709 8.93764C7.66709 8.3872 7.19465 7.94098 6.61187 7.94098C6.02908 7.94098 5.55664 8.3872 5.55664 8.93764C5.55664 9.48807 6.02908 9.93429 6.61187 9.93429Z" fill="#868889"/>
<path id="Vector_5" d="M21.0051 0.266724H1.08246C0.616221 0.266724 0.238281 0.623686 0.238281 1.06405V13.8213C0.238281 14.2616 0.616221 14.6186 1.08246 14.6186H21.0051C21.4714 14.6186 21.8493 14.2616 21.8493 13.8213V1.06405C21.8493 0.623686 21.4714 0.266724 21.0051 0.266724ZM20.161 13.0239H1.92664V1.86138H20.161V13.0239Z" fill="#868889"/>
<path id="Vector_6" d="M6.61176 5.74834H15.4757C15.9419 5.74834 16.3198 5.39138 16.3198 4.95101C16.3198 4.51065 15.9419 4.15369 15.4757 4.15369H6.61176C6.14552 4.15369 5.76758 4.51065 5.76758 4.95101C5.76758 5.39138 6.14552 5.74834 6.61176 5.74834Z" fill="#868889"/>
</g>
</g>
</g>
</svg>
