<svg width="21" height="15" viewBox="0 0 21 15" fill="none" xmlns="http://www.w3.org/2000/svg">
<g id="Group">
<g id="Group_2">
<path id="Vector" d="M18.6493 0.665375H2.59037C1.64731 0.665375 0.87793 1.39126 0.87793 2.28277V13.0654C0.87793 13.9539 1.64389 14.6828 2.59037 14.6828H18.6493C19.59 14.6828 20.3617 13.9594 20.3617 13.0654V2.28277C20.3617 1.39428 19.5958 0.665375 18.6493 0.665375ZM18.4128 1.74364L10.6561 9.06984L2.83236 1.74364H18.4128ZM2.01956 12.8422V2.50091L7.51761 7.64926L2.01956 12.8422ZM2.82681 13.6046L8.32832 8.4084L10.256 10.2135C10.4792 10.4225 10.8393 10.4218 11.0615 10.2118L12.9412 8.43654L18.4129 13.6046H2.82681ZM19.2201 12.8421L13.7484 7.6741L19.2201 2.50605V12.8421Z" fill="#868889"/>
</g>
</g>
</svg>
