<svg width="21" height="21" viewBox="0 0 21 21" fill="none" xmlns="http://www.w3.org/2000/svg">
<g id="Group">
<path id="Vector" d="M17.3848 3.65155C15.4648 1.83813 12.912 0.839417 10.1967 0.839417C7.48132 0.839417 4.92863 1.83813 3.00864 3.65155C1.08865 5.46497 0.03125 7.87597 0.03125 10.4407C0.03125 13.0052 1.08865 15.4164 3.00864 17.2298C4.92863 19.0432 7.48132 20.0419 10.1967 20.0419C12.912 20.0419 15.4648 19.0432 17.3848 17.2298C19.3048 15.4164 20.3622 13.0052 20.3622 10.4407C20.3622 7.87597 19.3048 5.46497 17.3848 3.65155ZM5.12748 17.4311C5.55264 15.119 7.67397 13.4135 10.1967 13.4135C12.7196 13.4135 14.8408 15.119 15.266 17.4311C13.8226 18.3677 12.0764 18.9168 10.1967 18.9168C8.31706 18.9168 6.5708 18.3677 5.12748 17.4311ZM6.96448 9.23553C6.96448 7.55206 8.41447 6.18269 10.1967 6.18269C11.979 6.18269 13.429 7.5522 13.429 9.23553C13.429 10.9188 11.979 12.2884 10.1967 12.2884C8.41447 12.2884 6.96448 10.9188 6.96448 9.23553ZM16.2978 16.6506C15.9772 15.5743 15.3404 14.5977 14.4479 13.8349C13.9003 13.3668 13.2771 12.9974 12.607 12.7371C13.8181 11.991 14.6204 10.7001 14.6204 9.23553C14.6204 6.93176 12.6359 5.05754 10.1967 5.05754C7.75757 5.05754 5.77321 6.93176 5.77321 9.23553C5.77321 10.7001 6.57546 11.991 7.78642 12.7371C7.11649 12.9974 6.49309 13.3666 5.94554 13.8347C5.05318 14.5976 4.41629 15.5741 4.09567 16.6505C2.32971 15.1015 1.22252 12.8911 1.22252 10.4407C1.22252 5.76691 5.24831 1.96456 10.1967 1.96456C15.1451 1.96456 19.1709 5.76691 19.1709 10.4407C19.1709 12.8912 18.0637 15.1017 16.2978 16.6506Z" fill="#969696"/>
</g>
</svg>
