<svg width="18" height="22" viewBox="0 0 18 22" fill="none" xmlns="http://www.w3.org/2000/svg">
<g id="Group">
<path id="Vector" d="M9.0439 0.0595703C4.31446 0.0595703 0.466797 3.69367 0.466797 8.16061C0.466797 10.6729 1.84312 13.5908 4.55756 16.8333C6.54379 19.2059 8.50141 20.8455 8.58378 20.9142C8.84665 21.1332 9.2411 21.1333 9.50402 20.9142C9.58639 20.8455 11.544 19.2059 13.5302 16.8333C16.2447 13.5908 17.621 10.6729 17.621 8.16061C17.621 3.69367 13.7733 0.0595703 9.0439 0.0595703V0.0595703ZM9.0439 19.5255C7.39114 18.0379 1.85768 12.7159 1.85768 8.16061C1.85768 4.41805 5.0814 1.37325 9.0439 1.37325C13.0064 1.37325 16.2301 4.41805 16.2301 8.16061C16.2301 12.7159 10.6966 18.038 9.0439 19.5255Z" fill="#868889"/>
<path id="Vector_2" d="M14.3647 7.77149L9.49658 3.83044C9.23614 3.61959 8.85186 3.61959 8.59142 3.83044L3.72333 7.77149C3.43172 8.00754 3.39795 8.42226 3.64791 8.69768C3.89788 8.9731 4.33692 9.005 4.62853 8.7689L5.21905 8.29081V11.5544C5.21905 11.9171 5.53043 12.2112 5.91449 12.2112H12.1735C12.5575 12.2112 12.8689 11.9171 12.8689 11.5544V8.29081L13.4595 8.7689C13.7524 9.00607 14.1912 8.97187 14.4401 8.69768C14.6901 8.42226 14.6563 8.00758 14.3647 7.77149ZM11.478 10.8976H6.60993V7.16477L9.04398 5.19425L11.478 7.16477V10.8976Z" fill="#868889"/>
</g>
</svg>
