<svg width="22" height="20" viewBox="0 0 22 20" fill="none" xmlns="http://www.w3.org/2000/svg">
<g id="telephone 1" clip-path="url(#clip0_2_4059)">
<g id="Group">
<path id="Vector" d="M5.13919 13.1697C7.16361 15.4515 9.60058 17.248 12.382 18.5192C13.441 18.9924 14.8573 19.5538 16.4351 19.65C16.533 19.654 16.6265 19.658 16.7243 19.658C17.7833 19.658 18.6339 19.3132 19.3272 18.6034C19.3314 18.5994 19.3399 18.5914 19.3442 18.5833C19.5909 18.3026 19.8716 18.05 20.165 17.7813C20.3649 17.6009 20.569 17.4124 20.7647 17.2199C21.6706 16.3297 21.6706 15.1988 20.7562 14.3366L18.2001 11.9266C17.7663 11.5015 17.2475 11.2769 16.7031 11.2769C16.1587 11.2769 15.6356 11.5015 15.189 11.9226L13.6664 13.3582C13.5261 13.282 13.3815 13.2138 13.2454 13.1497C13.0753 13.0695 12.9179 12.9933 12.7776 12.909C11.3911 12.079 10.1322 10.9962 8.9286 9.60472C8.32043 8.87889 7.91214 8.26936 7.62719 7.64779C8.02697 7.30694 8.40123 6.95004 8.76274 6.60116C8.89033 6.47684 9.02217 6.35253 9.15401 6.22822C9.61333 5.79513 9.86001 5.29386 9.86001 4.78458C9.86001 4.2753 9.61759 3.77404 9.15401 3.34094L7.88662 2.14593C7.73776 2.00558 7.59742 1.86924 7.45281 1.72888C7.17212 1.4562 6.87866 1.17549 6.58946 0.922853C6.1514 0.517833 5.63679 0.305298 5.0924 0.305298C4.55227 0.305298 4.03341 0.517833 3.57834 0.926864L1.98772 2.42664C1.40931 2.97202 1.08183 3.63368 1.01378 4.39961C0.932976 5.35803 1.12011 6.37659 1.60495 7.60769C2.34922 9.51249 3.47201 11.2809 5.13919 13.1697ZM2.05151 4.48382C2.10255 3.95048 2.31945 3.50536 2.72774 3.12039L4.30985 1.62863C4.55653 1.40407 4.82872 1.28777 5.0924 1.28777C5.35184 1.28777 5.61552 1.40407 5.85794 1.63665C6.14289 1.88528 6.41083 2.14593 6.70003 2.42263C6.84464 2.56298 6.99349 2.70334 7.14235 2.8477L8.40974 4.04271C8.67342 4.29134 8.80952 4.54397 8.80952 4.7926C8.80952 5.04123 8.67342 5.29386 8.40974 5.54249C8.27789 5.6668 8.14605 5.79513 8.01421 5.91944C7.61868 6.29639 7.24867 6.65329 6.84038 6.99415C6.83188 7.00217 6.82762 7.00618 6.81912 7.0142C6.46612 7.34704 6.52141 7.66383 6.60647 7.90444C6.61072 7.91647 6.61497 7.92449 6.61923 7.93652C6.94671 8.67839 7.40178 9.38417 8.11203 10.2263C9.38793 11.71 10.7319 12.8609 12.2119 13.7472C12.3948 13.8594 12.5904 13.9477 12.7733 14.0359C12.9434 14.1161 13.1008 14.1923 13.2411 14.2765C13.2581 14.2845 13.2709 14.2925 13.2879 14.3006C13.4283 14.3687 13.5644 14.4008 13.7005 14.4008C14.0407 14.4008 14.2619 14.1963 14.3342 14.1281L15.9248 12.6283C16.1714 12.3958 16.4394 12.2714 16.7031 12.2714C17.0263 12.2714 17.29 12.4599 17.4559 12.6283L20.0204 15.0424C20.5308 15.5236 20.5265 16.0449 20.0077 16.5542C19.829 16.7347 19.6419 16.9071 19.442 17.0876C19.1443 17.3603 18.8338 17.641 18.5531 17.9578C18.064 18.455 17.4814 18.6876 16.7286 18.6876C16.6563 18.6876 16.5797 18.6836 16.5074 18.6796C15.1125 18.5954 13.8153 18.0821 12.8414 17.645C10.196 16.4379 7.87386 14.7256 5.94725 12.5521C4.36089 10.7516 3.29339 9.07539 2.58739 7.27886C2.14933 6.17609 1.98346 5.28985 2.05151 4.48382Z" fill="#868889"/>
</g>
</g>
<defs>
<clipPath id="clip0_2_4059">
<rect width="20.5249" height="19.3527" fill="white" transform="translate(0.956543 0.305298)"/>
</clipPath>
</defs>
</svg>
