<svg width="95" height="111" viewBox="0 0 95 111" fill="none" xmlns="http://www.w3.org/2000/svg">
<path id="Vector" d="M93.9904 95.4683L87.2674 24.9593C87.1233 23.3939 85.7067 22.2087 84.0499 22.2087H70.2197C70.0276 10.446 59.703 0.941956 47.0253 0.941956C34.3476 0.941956 24.0229 10.446 23.8308 22.2087H10.0006C8.31986 22.2087 6.92723 23.3939 6.78317 24.9593L0.0601442 95.4683C0.0601442 95.5577 0.0361328 95.6472 0.0361328 95.7366C0.0361328 103.765 7.93568 110.295 17.6601 110.295H76.3905C86.1148 110.295 94.0144 103.765 94.0144 95.7366C94.0144 95.6472 94.0144 95.5577 93.9904 95.4683ZM47.0253 6.97983C56.1254 6.97983 63.5447 13.778 63.7368 22.2087H30.3137C30.5058 13.778 37.9252 6.97983 47.0253 6.97983ZM76.3905 104.257H17.6601C11.5613 104.257 6.61509 100.5 6.51905 95.8708L12.9539 28.2689H23.8068V37.4376C23.8068 39.1148 25.2475 40.4565 27.0483 40.4565C28.8491 40.4565 30.2897 39.1148 30.2897 37.4376V28.2689H63.7368V37.4376C63.7368 39.1148 65.1774 40.4565 66.9782 40.4565C68.7791 40.4565 70.2197 39.1148 70.2197 37.4376V28.2689H81.0726L87.5315 95.8708C87.4354 100.5 82.4652 104.257 76.3905 104.257Z" fill="#48CB66"/>
</svg>
