<svg width="17" height="21" viewBox="0 0 17 21" fill="none" xmlns="http://www.w3.org/2000/svg">
<path id="Vector" d="M16.2594 18.1528L15.1392 4.61227C15.1152 4.31166 14.8792 4.08405 14.6032 4.08405H12.2989C12.2669 1.82515 10.5467 0 8.43442 0C6.32216 0 4.60195 1.82515 4.56995 4.08405H2.26567C1.98564 4.08405 1.75361 4.31166 1.7296 4.61227L0.609469 18.1528C0.609469 18.1699 0.605469 18.1871 0.605469 18.2043C0.605469 19.746 1.92163 21 3.54182 21H13.327C14.9472 21 16.2634 19.746 16.2634 18.2043C16.2634 18.1871 16.2634 18.1699 16.2594 18.1528ZM8.43442 1.15951C9.9506 1.15951 11.1867 2.46503 11.2188 4.08405H5.65008C5.68208 2.46503 6.91823 1.15951 8.43442 1.15951ZM13.327 19.8405H3.54182C2.5257 19.8405 1.7016 19.119 1.6856 18.2301L2.75773 5.24785H4.56595V7.00859C4.56595 7.33067 4.80598 7.58834 5.10601 7.58834C5.40605 7.58834 5.64608 7.33067 5.64608 7.00859V5.24785H11.2188V7.00859C11.2188 7.33067 11.4588 7.58834 11.7588 7.58834C12.0589 7.58834 12.2989 7.33067 12.2989 7.00859V5.24785H14.1071L15.1832 18.2301C15.1672 19.119 14.3391 19.8405 13.327 19.8405Z" fill="white"/>
</svg>
