<svg width="40" height="40" viewBox="0 0 40 40" fill="none" xmlns="http://www.w3.org/2000/svg">
<g id="WhatsApp-Logo-Icon">
<path id="Vector" d="M9.08 0C8.2 0.04 7.04 0.12 6.52 0.24C5.72 0.4 4.96 0.64 4.36 0.96C3.6 1.32 2.96 1.8 2.4 2.36C1.8 2.96 1.32 3.6 0.96 4.36C0.64 4.96 0.4 5.72 0.24 6.52C0.12 7.04 0.04 8.2 0.04 9.08C0 9.44 0 9.92 0 10.16V29.8401V30.9201C0.04 31.8001 0.12 32.9601 0.24 33.4801C0.4 34.2801 0.64 35.0401 0.96 35.6401C1.32 36.4001 1.8 37.0401 2.36 37.6001C2.96 38.2001 3.6 38.6801 4.36 39.0401C4.96 39.3601 5.72 39.6001 6.52 39.7601C7.04 39.8801 8.2 39.9601 9.08 39.9601C9.44 40.0001 9.92 40.0001 10.16 40.0001H29.84H30.92C31.8 39.9601 32.96 39.8801 33.48 39.7601C34.28 39.6001 35.04 39.3601 35.64 39.0401C36.4 38.6801 37.04 38.2001 37.6 37.6401C38.2 37.0401 38.68 36.4001 39.04 35.6401C39.36 35.0401 39.6 34.2801 39.76 33.4801C39.88 32.9601 39.96 31.8001 39.96 30.9201C40 30.5601 40 30.0801 40 29.8401V9.08C39.96 8.2 39.88 7.04 39.76 6.52C39.6 5.72 39.36 4.96 39.04 4.36C38.68 3.6 38.2 2.96 37.64 2.4C37.04 1.8 36.4 1.32 35.64 0.96C35.04 0.64 34.28 0.4 33.48 0.24C32.96 0.12 31.8 0.04 30.92 0.04C30.56 -4.65661e-09 30.08 0 29.84 0H9.08Z" fill="url(#paint0_linear_52_127)"/>
<path id="Vector_2" fill-rule="evenodd" clip-rule="evenodd" d="M26.9334 22.6348C26.5771 22.4565 24.8255 21.5949 24.4989 21.4761C24.1723 21.3573 23.9349 21.2978 23.6974 21.6544C23.4598 22.0109 22.7771 22.8131 22.5693 23.0508C22.3615 23.2885 22.1537 23.3183 21.7974 23.1399C21.4411 22.9617 20.2932 22.5856 18.9324 21.3722C17.8734 20.4279 17.1583 19.2615 16.9505 18.9049C16.7427 18.5483 16.9284 18.3556 17.1067 18.178C17.267 18.0186 17.463 17.7621 17.6411 17.5541C17.8192 17.3462 17.8786 17.1976 17.9973 16.9599C18.1161 16.7223 18.0567 16.5142 17.9677 16.3359C17.8786 16.1576 17.1661 14.4047 16.8692 13.6915C16.5801 12.9971 16.2863 13.0911 16.0677 13.0801C15.8601 13.0698 15.6223 13.0676 15.3848 13.0676C15.1473 13.0676 14.7614 13.1568 14.4348 13.5133C14.1082 13.8698 13.1879 14.7315 13.1879 16.4845C13.1879 18.2375 14.4645 19.9311 14.6426 20.1688C14.8208 20.4065 17.1548 24.0039 20.7287 25.5466C21.5787 25.9136 22.2423 26.1326 22.7597 26.2969C23.6131 26.5679 24.3898 26.5297 25.0037 26.438C25.6881 26.3357 27.1115 25.5763 27.4084 24.7444C27.7052 23.9125 27.7052 23.1994 27.6162 23.0508C27.5272 22.9023 27.2897 22.8131 26.9334 22.6348ZM20.4328 31.5077H20.428C18.3015 31.5069 16.2158 30.9358 14.3963 29.8564L13.9635 29.5996L9.47812 30.7758L10.6754 26.4041L10.3935 25.9559C9.20727 24.0696 8.58078 21.8894 8.58164 19.6509C8.58422 13.1188 13.9006 7.80444 20.4376 7.80444C23.603 7.80569 26.5784 9.03967 28.8159 11.279C31.0534 13.5183 32.285 16.4949 32.2838 19.6605C32.2811 26.193 26.9648 31.5077 20.4328 31.5077ZM30.5189 9.57733C27.827 6.88311 24.247 5.39866 20.4327 5.39709C12.5737 5.39709 6.17742 11.7909 6.1743 19.65C6.17328 22.1622 6.82977 24.6145 8.0775 26.7759L6.05469 34.1623L13.6133 32.1802C15.6959 33.3158 18.0406 33.9141 20.427 33.9151H20.4329C28.2912 33.9151 34.688 27.5205 34.6912 19.6614C34.6927 15.8527 33.211 12.2715 30.5189 9.57733Z" fill="white"/>
</g>
<defs>
<linearGradient id="paint0_linear_52_127" x1="20" y1="40.0001" x2="20" y2="7.62939e-05" gradientUnits="userSpaceOnUse">
<stop stop-color="#25CF43"/>
<stop offset="1" stop-color="#61FD7D"/>
</linearGradient>
</defs>
</svg>
